<svg xmlns="http://www.w3.org/2000/svg" viewBox="0 0 810.37 373.847">
  <g id="blocks-outlined-right" transform="translate(-1110.905 -175.845)">
    <g id="right-side" transform="translate(1112 177)" opacity="0.1">
      <g id="Group_51" data-name="Group 51">
        <g id="Group_28" data-name="Group 28" transform="translate(293.279 216.366)" opacity="0.3">
          <path id="Path_26" data-name="Path 26" d="M469.53,184.881l63.281-22.9L580.666,209.3l-15.425,70.221-63.281,22.9L454.1,255.1Z" transform="translate(-454.105 -161.977)" fill="#0c598b" stroke="#fff" stroke-miterlimit="10" stroke-width="2"/>
          <line id="Line_76" data-name="Line 76" x1="63.074" y2="22.95" transform="translate(0 70.176)" fill="#0c598b" stroke="#fff" stroke-miterlimit="10" stroke-width="2"/>
          <line id="Line_77" data-name="Line 77" x1="15.407" y2="70.136" transform="translate(63.3)" fill="#0c598b" stroke="#fff" stroke-miterlimit="10" stroke-width="2"/>
          <line id="Line_78" data-name="Line 78" x1="47.874" y1="47.232" transform="translate(63.262 70.306)" fill="#0c598b" stroke="#fff" stroke-miterlimit="10" stroke-width="2"/>
        </g>
        <g id="Group_29" data-name="Group 29" transform="translate(338.804 4.808)" opacity="0.2">
          <path id="Path_27" data-name="Path 27" d="M522.816-62.741l63.281-22.9,47.856,47.317L618.527,31.893,555.246,54.8,507.39,7.48Z" transform="translate(-507.39 85.645)" fill="#0c598b" stroke="#fff" stroke-miterlimit="10" stroke-width="2"/>
          <line id="Line_79" data-name="Line 79" x1="63.074" y2="22.95" transform="translate(0 70.176)" fill="#0c598b" stroke="#fff" stroke-miterlimit="10" stroke-width="2"/>
          <line id="Line_80" data-name="Line 80" x1="15.407" y2="70.136" transform="translate(63.3)" fill="#0c598b" stroke="#fff" stroke-miterlimit="10" stroke-width="2"/>
          <line id="Line_81" data-name="Line 81" x1="47.874" y1="47.232" transform="translate(63.262 70.306)" fill="#0c598b" stroke="#fff" stroke-miterlimit="10" stroke-width="2"/>
        </g>
        <g id="Group_30" data-name="Group 30" transform="translate(23.252 119.603)" opacity="0.2">
          <path id="Path_28" data-name="Path 28" d="M153.472,71.623l63.281-22.9L264.608,96.04l-15.425,70.221-63.281,22.9-47.855-47.317Z" transform="translate(-138.046 -48.719)" fill="#0c598b" stroke="#fff" stroke-miterlimit="10" stroke-width="2"/>
          <line id="Line_82" data-name="Line 82" x1="63.074" y2="22.95" transform="translate(0 70.176)" fill="#0c598b" stroke="#fff" stroke-miterlimit="10" stroke-width="2"/>
          <line id="Line_83" data-name="Line 83" x1="15.407" y2="70.136" transform="translate(63.3)" fill="#0c598b" stroke="#fff" stroke-miterlimit="10" stroke-width="2"/>
          <line id="Line_84" data-name="Line 84" x1="47.874" y1="47.232" transform="translate(63.262 70.306)" fill="#0c598b" stroke="#fff" stroke-miterlimit="10" stroke-width="2"/>
        </g>
        <g id="Group_31" data-name="Group 31" transform="translate(372.715 122.173)" opacity="0.1">
          <path id="Path_29" data-name="Path 29" d="M562.508,74.63l63.281-22.9,47.855,47.317-15.425,70.221-63.281,22.9-47.855-47.317Z" transform="translate(-547.082 -51.726)" fill="#0c598b" stroke="#fff" stroke-miterlimit="10" stroke-width="2"/>
          <line id="Line_85" data-name="Line 85" x1="63.074" y2="22.95" transform="translate(0 70.176)" fill="#0c598b" stroke="#fff" stroke-miterlimit="10" stroke-width="2"/>
          <line id="Line_86" data-name="Line 86" x1="15.407" y2="70.136" transform="translate(63.3)" fill="#0c598b" stroke="#fff" stroke-miterlimit="10" stroke-width="2"/>
          <line id="Line_87" data-name="Line 87" x1="47.874" y1="47.232" transform="translate(63.262 70.306)" fill="#0c598b" stroke="#fff" stroke-miterlimit="10" stroke-width="2"/>
        </g>
        <g id="Group_32" data-name="Group 32" transform="translate(260.308 99.72)" opacity="0.5">
          <path id="Path_30" data-name="Path 30" d="M430.939,48.35l63.281-22.9,47.855,47.317L526.65,142.985l-63.281,22.9-47.855-47.317Z" transform="translate(-415.513 -25.446)" fill="#0c598b" stroke="rgba(255,255,255,0.7)" stroke-miterlimit="10" stroke-width="2"/>
          <line id="Line_88" data-name="Line 88" x1="63.074" y2="22.95" transform="translate(0 70.176)" fill="#0c598b" stroke="#fff" stroke-miterlimit="10" stroke-width="2"/>
          <line id="Line_89" data-name="Line 89" x1="15.407" y2="70.136" transform="translate(63.3)" fill="#0c598b" stroke="#fff" stroke-miterlimit="10" stroke-width="2"/>
          <line id="Line_90" data-name="Line 90" x1="47.874" y1="47.232" transform="translate(63.262 70.306)" fill="#0c598b" stroke="#fff" stroke-miterlimit="10" stroke-width="2"/>
        </g>
        <g id="Group_33" data-name="Group 33" transform="translate(545.991 120.921)" opacity="0.05">
          <path id="Path_31" data-name="Path 31" d="M765.322,73.165l63.281-22.9,47.855,47.317L861.033,167.8l-63.281,22.9L749.9,143.386Z" transform="translate(-749.897 -50.261)" fill="#0c598b" stroke="#fff" stroke-miterlimit="10" stroke-width="2"/>
          <line id="Line_91" data-name="Line 91" x1="63.074" y2="22.95" transform="translate(0 70.176)" fill="#0c598b" stroke="#fff" stroke-miterlimit="10" stroke-width="2"/>
          <line id="Line_92" data-name="Line 92" x1="15.407" y2="70.136" transform="translate(63.3)" fill="#0c598b" stroke="#fff" stroke-miterlimit="10" stroke-width="2"/>
          <line id="Line_93" data-name="Line 93" x1="47.874" y1="47.232" transform="translate(63.262 70.306)" fill="#0c598b" stroke="#fff" stroke-miterlimit="10" stroke-width="2"/>
        </g>
        <g id="Group_34" data-name="Group 34" transform="translate(408.505 244.684)" opacity="0.5">
          <path id="Path_32" data-name="Path 32" d="M601.03,213.024l49.461-17.9,37.4,36.984-12.057,54.886-49.461,17.9-37.4-36.984Z" transform="translate(-588.973 -195.121)" fill="#0c598b" stroke="#fff" stroke-miterlimit="10" stroke-width="2"/>
          <line id="Line_94" data-name="Line 94" x1="49.299" y2="17.938" transform="translate(0 54.851)" fill="#0c598b" stroke="#fff" stroke-miterlimit="10" stroke-width="2"/>
          <line id="Line_95" data-name="Line 95" x1="12.042" y2="54.82" transform="translate(49.476)" fill="#0c598b" stroke="#fff" stroke-miterlimit="10" stroke-width="2"/>
          <line id="Line_96" data-name="Line 96" x1="37.419" y1="36.917" transform="translate(49.447 54.953)" fill="#0c598b" stroke="#fff" stroke-miterlimit="10" stroke-width="2"/>
        </g>
        <g id="Group_35" data-name="Group 35" transform="translate(181.458 191.278)" opacity="0.6">
          <path id="Path_33" data-name="Path 33" d="M338.647,155.516l63.281-22.9,47.855,47.317L434.358,250.15l-63.281,22.9-47.855-47.317Z" transform="translate(-323.222 -132.612)" fill="#0c598b" stroke="rgba(255,255,255,0.8)" stroke-miterlimit="10" stroke-width="2"/>
          <line id="Line_97" data-name="Line 97" x1="63.074" y2="22.95" transform="translate(0 70.176)" fill="#0c598b" stroke="#fff" stroke-miterlimit="10" stroke-width="2"/>
          <line id="Line_98" data-name="Line 98" x1="15.407" y2="70.136" transform="translate(63.3)" fill="#0c598b" stroke="rgba(255,255,255,0.8)" stroke-miterlimit="10" stroke-width="2"/>
          <line id="Line_99" data-name="Line 99" x1="47.874" y1="47.232" transform="translate(63.262 70.306)" fill="#0c598b" stroke="#fff" stroke-miterlimit="10" stroke-width="2"/>
        </g>
        <g id="Group_36" data-name="Group 36" transform="translate(450.34 27.651)" opacity="0.05">
          <path id="Path_34" data-name="Path 34" d="M653.365-36l63.281-22.9L764.5-11.591,749.076,58.63,685.8,81.534,637.94,34.217Z" transform="translate(-637.94 58.908)" fill="#0c598b" stroke="#fff" stroke-miterlimit="10" stroke-width="2"/>
          <line id="Line_100" data-name="Line 100" x1="63.074" y2="22.95" transform="translate(0 70.176)" fill="#0c598b" stroke="#fff" stroke-miterlimit="10" stroke-width="2"/>
          <line id="Line_101" data-name="Line 101" x1="15.407" y2="70.136" transform="translate(63.3)" fill="#0c598b" stroke="#fff" stroke-miterlimit="10" stroke-width="2"/>
          <line id="Line_102" data-name="Line 102" x1="47.874" y1="47.232" transform="translate(63.262 70.306)" fill="#0c598b" stroke="#fff" stroke-miterlimit="10" stroke-width="2"/>
        </g>
        <g id="Group_37" data-name="Group 37" transform="translate(148.592 73.762)" opacity="0.3">
          <path id="Path_35" data-name="Path 35" d="M300.179,17.967l63.281-22.9L411.315,42.38,395.89,112.6l-63.281,22.9L284.754,88.188Z" transform="translate(-284.754 4.937)" fill="#0c598b" stroke="rgba(255,255,255,0.8)" stroke-miterlimit="10" stroke-width="2"/>
          <line id="Line_103" data-name="Line 103" x1="63.074" y2="22.95" transform="translate(0 70.176)" fill="#0c598b" stroke="#fff" stroke-miterlimit="10" stroke-width="2"/>
          <line id="Line_104" data-name="Line 104" x1="15.407" y2="70.136" transform="translate(63.3)" fill="#0c598b" stroke="#fff" stroke-miterlimit="10" stroke-width="2"/>
          <line id="Line_105" data-name="Line 105" x1="47.874" y1="47.232" transform="translate(63.262 70.306)" fill="#0c598b" stroke="#fff" stroke-miterlimit="10" stroke-width="2"/>
        </g>
        <g id="Group_38" data-name="Group 38" transform="translate(344.231 99.562)" opacity="0.2">
          <path id="Path_36" data-name="Path 36" d="M523.987,40.471,566.013,25.26l31.781,31.424L587.55,103.319,545.524,118.53,513.742,87.106Z" transform="translate(-513.742 -25.261)" fill="#0c598b" stroke="#0c598b" stroke-miterlimit="10" stroke-width="2"/>
          <line id="Line_106" data-name="Line 106" x1="41.888" y2="15.241" transform="translate(0 46.605)" fill="#0c598b" stroke="#0c598b" stroke-miterlimit="10" stroke-width="2"/>
          <line id="Line_107" data-name="Line 107" x1="10.232" y2="46.578" transform="translate(42.038)" fill="#0c598b" stroke="#0c598b" stroke-miterlimit="10" stroke-width="2"/>
          <line id="Line_108" data-name="Line 108" x1="31.794" y1="31.367" transform="translate(42.013 46.691)" fill="#0c598b" stroke="#0c598b" stroke-miterlimit="10" stroke-width="2"/>
        </g>
        <g id="Group_39" data-name="Group 39" transform="translate(574.553 14.555)" opacity="0.2">
          <path id="Path_37" data-name="Path 37" d="M793.572-59.026,835.6-74.237l31.781,31.424L857.135,3.821,815.109,19.032,783.328-12.392Z" transform="translate(-783.328 74.237)" fill="#0c598b" stroke="#fff" stroke-miterlimit="10" stroke-width="2"/>
          <line id="Line_109" data-name="Line 109" x1="41.888" y2="15.241" transform="translate(0 46.605)" fill="#0c598b" stroke="#fff" stroke-miterlimit="10" stroke-width="2"/>
          <line id="Line_110" data-name="Line 110" x1="10.232" y2="46.578" transform="translate(42.038)" fill="#0c598b" stroke="#fff" stroke-miterlimit="10" stroke-width="2"/>
          <line id="Line_111" data-name="Line 111" x1="31.794" y1="31.367" transform="translate(42.013 46.691)" fill="#0c598b" stroke="#fff" stroke-miterlimit="10" stroke-width="2"/>
        </g>
        <g id="Group_40" data-name="Group 40" transform="translate(298.351 224.474)" opacity="0.2">
          <path id="Path_38" data-name="Path 38" d="M470.286,186.678l42.026-15.211,31.781,31.424-10.244,46.635-42.026,15.211-31.781-31.424Z" transform="translate(-460.042 -171.467)" fill="#0c598b" stroke="rgba(255,255,255,0.8)" stroke-miterlimit="10" stroke-width="2"/>
          <line id="Line_112" data-name="Line 112" x1="41.888" y2="15.241" transform="translate(0 46.605)" fill="#0c598b" stroke="#fff" stroke-miterlimit="10" stroke-width="2"/>
          <line id="Line_113" data-name="Line 113" x1="10.232" y2="46.578" transform="translate(42.038)" fill="#0c598b" stroke="#fff" stroke-miterlimit="10" stroke-width="2"/>
          <line id="Line_114" data-name="Line 114" x1="31.794" y1="31.367" transform="translate(42.013 46.691)" fill="#0c598b" stroke="#fff" stroke-miterlimit="10" stroke-width="2"/>
        </g>
        <g id="Group_41" data-name="Group 41" transform="translate(184.082 111.879)" opacity="0.2">
          <path id="Path_39" data-name="Path 39" d="M336.538,54.889l42.026-15.211L410.345,71.1,400.1,117.737l-42.026,15.211-31.781-31.424Z" transform="translate(-326.294 -39.678)" fill="#0c598b" stroke="#fff" stroke-miterlimit="10" stroke-width="2"/>
          <line id="Line_115" data-name="Line 115" x1="41.888" y2="15.241" transform="translate(0 46.605)" fill="#0c598b" stroke="#fff" stroke-miterlimit="10" stroke-width="2"/>
          <line id="Line_116" data-name="Line 116" x1="10.232" y2="46.578" transform="translate(42.038)" fill="#0c598b" stroke="#fff" stroke-miterlimit="10" stroke-width="2"/>
          <line id="Line_117" data-name="Line 117" x1="31.794" y1="31.367" transform="translate(42.013 46.691)" fill="#0c598b" stroke="#fff" stroke-miterlimit="10" stroke-width="2"/>
        </g>
        <g id="Group_42" data-name="Group 42" transform="translate(44.429 143.287)" opacity="0.2">
          <path id="Path_40" data-name="Path 40" d="M173.078,91.651,215.1,76.44l31.781,31.424L236.641,154.5l-42.026,15.21-31.781-31.424Z" transform="translate(-162.834 -76.44)" fill="#0c598b" stroke="#fff" stroke-miterlimit="10" stroke-width="2"/>
          <line id="Line_118" data-name="Line 118" x1="41.888" y2="15.241" transform="translate(0 46.605)" fill="#0c598b" stroke="#fff" stroke-miterlimit="10" stroke-width="2"/>
          <line id="Line_119" data-name="Line 119" x1="10.232" y2="46.578" transform="translate(42.038)" fill="#0c598b" stroke="#fff" stroke-miterlimit="10" stroke-width="2"/>
          <line id="Line_120" data-name="Line 120" x1="31.794" y1="31.367" transform="translate(42.013 46.691)" fill="#0c598b" stroke="#fff" stroke-miterlimit="10" stroke-width="2"/>
        </g>
        <g id="Group_43" data-name="Group 43" transform="translate(616.623)" opacity="0.05">
          <path id="Path_41" data-name="Path 41" d="M842.813-76.062l42.026-15.211L916.62-59.849,906.376-13.215,864.351,2,832.569-29.428Z" transform="translate(-832.569 91.273)" fill="#0c598b" stroke="#fff" stroke-miterlimit="10" stroke-width="2"/>
          <line id="Line_121" data-name="Line 121" x1="41.888" y2="15.241" transform="translate(0 46.605)" fill="#0c598b" stroke="#fff" stroke-miterlimit="10" stroke-width="2"/>
          <line id="Line_122" data-name="Line 122" x1="10.232" y2="46.578" transform="translate(42.038)" fill="#0c598b" stroke="#fff" stroke-miterlimit="10" stroke-width="2"/>
          <line id="Line_123" data-name="Line 123" x1="31.794" y1="31.367" transform="translate(42.013 46.691)" fill="#0c598b" stroke="#fff" stroke-miterlimit="10" stroke-width="2"/>
        </g>
        <g id="Group_44" data-name="Group 44" transform="translate(616.623)" opacity="0.05">
          <path id="Path_42" data-name="Path 42" d="M842.813-76.062l42.026-15.211L916.62-59.849,906.376-13.215,864.351,2,832.569-29.428Z" transform="translate(-832.569 91.273)" fill="#0c598b" stroke="#fff" stroke-miterlimit="10" stroke-width="2"/>
          <line id="Line_124" data-name="Line 124" x1="41.888" y2="15.241" transform="translate(0 46.605)" fill="#0c598b" stroke="#fff" stroke-miterlimit="10" stroke-width="2"/>
          <line id="Line_125" data-name="Line 125" x1="10.232" y2="46.578" transform="translate(42.038)" fill="#0c598b" stroke="#fff" stroke-miterlimit="10" stroke-width="2"/>
          <line id="Line_126" data-name="Line 126" x1="31.794" y1="31.367" transform="translate(42.013 46.691)" fill="#0c598b" stroke="#fff" stroke-miterlimit="10" stroke-width="2"/>
        </g>
        <path id="Path_43" data-name="Path 43" d="M890.479,130.051,932.5,114.84l31.781,31.424L954.042,192.9l-42.026,15.211-31.781-31.424Z" transform="translate(-222.889 61.254)" fill="#0c598b" stroke="#fff" stroke-miterlimit="10" stroke-width="2" opacity="0.3"/>
        <line id="Line_127" data-name="Line 127" x1="41.888" y2="15.241" transform="translate(658.165 222.359)" fill="#0c598b" stroke="#fff" stroke-miterlimit="10" stroke-width="2" opacity="0.6"/>
        <line id="Line_128" data-name="Line 128" x1="10.232" y2="46.578" transform="translate(700.202 175.754)" fill="#0c598b" stroke="#fff" stroke-miterlimit="10" stroke-width="2" opacity="0.6"/>
        <line id="Line_129" data-name="Line 129" x1="31.794" y1="31.367" transform="translate(700.178 222.445)" fill="#0c598b" stroke="#fff" stroke-miterlimit="10" stroke-width="2" opacity="0.6"/>
        <g id="Group_45" data-name="Group 45" transform="translate(516.18 128.016)" opacity="0.1">
          <path id="Path_44" data-name="Path 44" d="M720.585,66.853l22.9-8.287L760.8,75.685l-5.581,25.406-22.9,8.287L715,92.259Z" transform="translate(-715.004 -58.566)" fill="#0c598b" stroke="#fff" stroke-miterlimit="10" stroke-width="2"/>
          <line id="Line_130" data-name="Line 130" x1="22.82" y2="8.303" transform="translate(0 25.39)" fill="#0c598b" stroke="#fff" stroke-miterlimit="10" stroke-width="2"/>
          <line id="Line_131" data-name="Line 131" x1="5.574" y2="25.375" transform="translate(22.902)" fill="#0c598b" stroke="#fff" stroke-miterlimit="10" stroke-width="2"/>
          <line id="Line_132" data-name="Line 132" x1="17.321" y1="17.089" transform="translate(22.888 25.437)" fill="#0c598b" stroke="#fff" stroke-miterlimit="10" stroke-width="2"/>
        </g>
        <g id="Group_46" data-name="Group 46" transform="translate(633.401 212.128)" opacity="0.1">
          <path id="Path_45" data-name="Path 45" d="M857.789,165.3l22.9-8.287L898,174.136l-5.581,25.406-22.9,8.287L852.208,190.71Z" transform="translate(-852.208 -157.017)" fill="#0c598b" stroke="#fff" stroke-miterlimit="10" stroke-width="2"/>
          <line id="Line_133" data-name="Line 133" x1="22.82" y2="8.303" transform="translate(0 25.39)" fill="#0c598b" stroke="#fff" stroke-miterlimit="10" stroke-width="2"/>
          <line id="Line_134" data-name="Line 134" x1="5.574" y2="25.375" transform="translate(22.902)" fill="#0c598b" stroke="#fff" stroke-miterlimit="10" stroke-width="2"/>
          <line id="Line_135" data-name="Line 135" x1="17.321" y1="17.089" transform="translate(22.888 25.437)" fill="#0c598b" stroke="#fff" stroke-miterlimit="10" stroke-width="2"/>
        </g>
        <g id="Group_47" data-name="Group 47" transform="translate(762.381 152.675)" opacity="0.1">
          <path id="Path_46" data-name="Path 46" d="M1008.76,95.715l22.9-8.287,17.314,17.119-5.581,25.406-22.9,8.287-17.314-17.119Z" transform="translate(-1003.175 -87.428)" fill="#0c598b" stroke="#fff" stroke-miterlimit="10" stroke-width="2"/>
          <line id="Line_136" data-name="Line 136" x1="22.82" y2="8.303" transform="translate(0 25.39)" fill="#0c598b" stroke="#fff" stroke-miterlimit="10" stroke-width="2"/>
          <line id="Line_137" data-name="Line 137" x1="5.574" y2="25.375" transform="translate(22.902)" fill="#0c598b" stroke="#fff" stroke-miterlimit="10" stroke-width="2"/>
          <line id="Line_138" data-name="Line 138" x1="17.321" y1="17.089" transform="translate(22.888 25.437)" fill="#0c598b" stroke="#fff" stroke-miterlimit="10" stroke-width="2"/>
        </g>
        <g id="Group_48" data-name="Group 48" transform="translate(426.603 265.562)" opacity="0.3">
          <path id="Path_47" data-name="Path 47" d="M617.921,231.087l31.852-11.528,24.087,23.816L666.1,278.72l-31.852,11.528-24.087-23.816Z" transform="translate(-610.156 -219.559)" fill="#0c598b" stroke="#fff" stroke-miterlimit="10" stroke-width="2"/>
          <line id="Line_139" data-name="Line 139" x1="31.747" y2="11.551" transform="translate(0 35.322)" fill="#0c598b" stroke="#fff" stroke-miterlimit="10" stroke-width="2"/>
          <line id="Line_140" data-name="Line 140" x1="7.755" y2="35.302" transform="translate(31.861)" fill="#0c598b" stroke="#fff" stroke-miterlimit="10" stroke-width="2"/>
          <line id="Line_141" data-name="Line 141" x1="24.097" y1="23.774" transform="translate(31.842 35.388)" fill="#0c598b" stroke="#fff" stroke-miterlimit="10" stroke-width="2"/>
        </g>
        <g id="Group_49" data-name="Group 49" transform="translate(0 186.366)" opacity="0.1">
          <path id="Path_48" data-name="Path 48" d="M116.412,135.149l22.9-8.287,17.314,17.119-5.581,25.406-22.9,8.287-17.314-17.119Z" transform="translate(-110.831 -126.862)" fill="#0c598b" stroke="#fff" stroke-miterlimit="10" stroke-width="2"/>
          <line id="Line_142" data-name="Line 142" x1="22.82" y2="8.303" transform="translate(0 25.39)" fill="#0c598b" stroke="#fff" stroke-miterlimit="10" stroke-width="2"/>
          <line id="Line_143" data-name="Line 143" x1="5.574" y2="25.375" transform="translate(22.902)" fill="#0c598b" stroke="#fff" stroke-miterlimit="10" stroke-width="2"/>
          <line id="Line_144" data-name="Line 144" x1="17.321" y1="17.089" transform="translate(22.888 25.437)" fill="#0c598b" stroke="#fff" stroke-miterlimit="10" stroke-width="2"/>
        </g>
        <path id="Path_49" data-name="Path 49" d="M307.279,193.843,349.3,178.632l31.781,31.424-10.244,46.635L328.816,271.9l-31.781-31.424Z" transform="translate(-137.95 51.964)" fill="#0c598b" stroke="#fff" stroke-miterlimit="10" stroke-width="2" opacity="0.3"/>
        <g id="Group_50" data-name="Group 50" transform="translate(264.045 320.724)" opacity="0.1">
          <path id="Path_50" data-name="Path 50" d="M425.469,292.411l22.9-8.287,17.314,17.119L460.1,326.65l-22.9,8.287-17.314-17.119Z" transform="translate(-419.888 -284.125)" fill="#0c598b" stroke="#fff" stroke-miterlimit="10" stroke-width="2"/>
          <line id="Line_145" data-name="Line 145" x1="22.82" y2="8.303" transform="translate(0 25.39)" fill="#0c598b" stroke="#fff" stroke-miterlimit="10" stroke-width="2"/>
          <line id="Line_146" data-name="Line 146" x1="5.574" y2="25.375" transform="translate(22.902)" fill="#0c598b" stroke="#fff" stroke-miterlimit="10" stroke-width="2"/>
          <line id="Line_147" data-name="Line 147" x1="17.321" y1="17.089" transform="translate(22.888 25.437)" fill="#0c598b" stroke="#fff" stroke-miterlimit="10" stroke-width="2"/>
        </g>
      </g>
      <g id="Group_52" data-name="Group 52" transform="translate(159.825 231.656)" opacity="0.3">
        <line id="Line_148" data-name="Line 148" x1="41.311" y2="15.031" transform="translate(0 45.963)" fill="#0c598b" stroke="#fff" stroke-miterlimit="10" stroke-width="2"/>
        <line id="Line_149" data-name="Line 149" x1="10.091" y2="45.937" transform="translate(41.459)" fill="#0c598b" stroke="#fff" stroke-miterlimit="10" stroke-width="2"/>
        <line id="Line_150" data-name="Line 150" x1="31.356" y1="30.936" transform="translate(41.435 46.049)" fill="#0c598b" stroke="#fff" stroke-miterlimit="10" stroke-width="2"/>
      </g>
    </g>
  </g>
</svg>
