<svg width="231" height="112" viewBox="0 0 231 112" fill="none" xmlns="http://www.w3.org/2000/svg">
<g clip-path="url(#clip0_2_2)">
<path d="M0.819181 81.2277H3.001V81.4834L1.28793 82.6723V82.6936H3.001V82.9578H0.819181V82.7022L2.53651 81.509V81.4877H0.819181V81.2277ZM3.03935 80.2516C3.03935 80.3553 3.01982 80.4494 2.98076 80.5339C2.94099 80.6184 2.88381 80.6856 2.80924 80.7353C2.73395 80.785 2.64304 80.8098 2.53651 80.8098C2.44276 80.8098 2.36677 80.7914 2.30853 80.7545C2.24958 80.7175 2.20341 80.6682 2.17003 80.6064C2.13665 80.5446 2.11179 80.4764 2.09546 80.4018C2.07841 80.3265 2.06492 80.2509 2.05498 80.1749C2.04219 80.0755 2.0326 79.9949 2.02621 79.9331C2.01911 79.8706 2.00739 79.8251 1.99106 79.7967C1.97472 79.7676 1.94631 79.753 1.90583 79.753H1.89731C1.79219 79.753 1.71052 79.7818 1.65228 79.8393C1.59404 79.8961 1.56492 79.9824 1.56492 80.0982C1.56492 80.2182 1.5912 80.3123 1.64376 80.3805C1.69631 80.4487 1.75242 80.4966 1.81208 80.5243L1.72685 80.763C1.62742 80.7204 1.55001 80.6635 1.49461 80.5925C1.4385 80.5208 1.39944 80.4427 1.37742 80.3581C1.35469 80.2729 1.34333 80.1891 1.34333 80.1067C1.34333 80.0542 1.34972 79.9938 1.36251 79.9256C1.37458 79.8567 1.39979 79.7903 1.43814 79.7264C1.4765 79.6618 1.53438 79.6081 1.61179 79.5655C1.68921 79.5229 1.7929 79.5016 1.92287 79.5016H3.001L3.001 79.753H2.77941V79.7658C2.81492 79.7829 2.85292 79.8113 2.8934 79.851C2.93388 79.8908 2.96833 79.9437 2.99674 80.0098C3.02515 80.0758 3.03935 80.1564 3.03935 80.2516ZM2.8135 80.2133C2.8135 80.1138 2.79397 80.03 2.75491 79.9618C2.71584 79.8929 2.66542 79.8411 2.60363 79.8063C2.54184 79.7708 2.47685 79.753 2.40867 79.753H2.17856C2.19134 79.7637 2.20306 79.7871 2.21371 79.8233C2.22366 79.8589 2.23253 79.9 2.24035 79.9469C2.24745 79.9931 2.25384 80.0382 2.25952 80.0822C2.26449 80.1255 2.26876 80.1607 2.27231 80.1877C2.28083 80.253 2.29468 80.3141 2.31385 80.3709C2.33232 80.427 2.36037 80.4725 2.39802 80.5073C2.43495 80.5414 2.48537 80.5584 2.54929 80.5584C2.63665 80.5584 2.7027 80.5261 2.74745 80.4615C2.79148 80.3961 2.8135 80.3134 2.8135 80.2133ZM3.001 79.0427H1.36464V78.7998H1.62032V78.7785C1.53296 78.7444 1.46513 78.6894 1.41684 78.6134C1.36783 78.5374 1.34333 78.4461 1.34333 78.3396C1.34333 78.2316 1.36783 78.1418 1.41684 78.0701C1.46513 77.9976 1.53296 77.9412 1.62032 77.9007V77.8836C1.5358 77.8417 1.46868 77.7789 1.41897 77.6951C1.36854 77.6113 1.34333 77.5108 1.34333 77.3936C1.34333 77.2473 1.38914 77.1276 1.48076 77.0345C1.57167 76.9415 1.71336 76.895 1.90583 76.895H3.001V77.1464H1.90583C1.78509 77.1464 1.6988 77.1794 1.64695 77.2455C1.5951 77.3115 1.56918 77.3893 1.56918 77.4788C1.56918 77.5938 1.60398 77.683 1.67358 77.7462C1.74248 77.8094 1.82983 77.841 1.93566 77.841H3.001V78.0967H1.88026C1.78722 78.0967 1.71229 78.1269 1.65547 78.1872C1.59795 78.2476 1.56918 78.3254 1.56918 78.4206C1.56918 78.4859 1.58658 78.547 1.62138 78.6038C1.65618 78.6599 1.70448 78.7054 1.76627 78.7402C1.82735 78.7742 1.89802 78.7913 1.97827 78.7913H3.001V79.0427ZM3.03509 75.7492C3.03509 75.9069 3.00029 76.0429 2.93069 76.1572C2.86037 76.2709 2.76236 76.3586 2.63665 76.4204C2.51023 76.4815 2.36322 76.512 2.1956 76.512C2.02799 76.512 1.88026 76.4815 1.75242 76.4204C1.62387 76.3586 1.52373 76.2726 1.45199 76.1626C1.37955 76.0518 1.34333 75.9225 1.34333 75.7748C1.34333 75.6896 1.35753 75.6054 1.38594 75.5223C1.41435 75.4392 1.46052 75.3636 1.52444 75.2954C1.58765 75.2272 1.67145 75.1729 1.77586 75.1324C1.88026 75.0919 2.00881 75.0717 2.16151 75.0717H2.26804V76.333H2.05072V75.3273C1.95839 75.3273 1.876 75.3458 1.80356 75.3827C1.73111 75.419 1.67394 75.4708 1.63204 75.5383C1.59013 75.605 1.56918 75.6839 1.56918 75.7748C1.56918 75.8749 1.59404 75.9616 1.64376 76.0347C1.69276 76.1072 1.75668 76.1629 1.83552 76.202C1.91435 76.241 1.99887 76.2606 2.08907 76.2606H2.23395C2.35753 76.2606 2.46229 76.2393 2.54823 76.1967C2.63346 76.1533 2.69844 76.0933 2.74319 76.0166C2.78722 75.9399 2.80924 75.8508 2.80924 75.7492C2.80924 75.6832 2.80001 75.6235 2.78154 75.5702C2.76236 75.5163 2.73395 75.4697 2.69631 75.4307C2.65796 75.3916 2.61037 75.3614 2.55356 75.3401L2.62174 75.0972C2.70412 75.1228 2.77657 75.1658 2.83907 75.2261C2.90086 75.2865 2.94915 75.3611 2.98395 75.4499C3.01804 75.5386 3.03509 75.6384 3.03509 75.7492ZM1.73111 73.5301L1.79503 73.756C1.75739 73.7702 1.72081 73.7911 1.6853 73.8188C1.64908 73.8458 1.61925 73.8827 1.59581 73.9296C1.57238 73.9765 1.56066 74.0365 1.56066 74.1097C1.56066 74.2098 1.58374 74.2932 1.62991 74.36C1.67536 74.4261 1.73324 74.4591 1.80356 74.4591C1.86606 74.4591 1.91542 74.4364 1.95164 74.3909C1.98786 74.3454 2.01804 74.2744 2.04219 74.1778L2.10185 73.9349C2.13736 73.7886 2.1917 73.6796 2.26485 73.6079C2.33729 73.5361 2.43069 73.5003 2.54503 73.5003C2.63878 73.5003 2.72259 73.5273 2.79645 73.5812C2.87032 73.6345 2.92856 73.7091 2.97117 73.805C3.01378 73.9008 3.03509 74.0124 3.03509 74.1395C3.03509 74.3064 2.99887 74.4445 2.92643 74.5539C2.85398 74.6633 2.74816 74.7325 2.60895 74.7616L2.54929 74.523C2.63736 74.5003 2.70341 74.4573 2.74745 74.3941C2.79148 74.3302 2.8135 74.2467 2.8135 74.1437C2.8135 74.0266 2.78864 73.9335 2.73893 73.8646C2.6885 73.795 2.62813 73.7602 2.55782 73.7602C2.501 73.7602 2.45341 73.7801 2.41506 73.8199C2.376 73.8597 2.34688 73.9207 2.3277 74.0031L2.26378 74.2758C2.22827 74.4257 2.17323 74.5358 2.09866 74.6061C2.02337 74.6757 1.92927 74.7105 1.81634 74.7105C1.72401 74.7105 1.64233 74.6846 1.57131 74.6327C1.50029 74.5802 1.44454 74.5088 1.40405 74.4186C1.36357 74.3277 1.34333 74.2247 1.34333 74.1097C1.34333 73.9477 1.37884 73.8206 1.44986 73.7283C1.52089 73.6352 1.61464 73.5692 1.73111 73.5301ZM3.001 72.244H0.819181V71.5068C0.819181 71.3363 0.848301 71.1964 0.906539 71.087C0.964068 70.9776 1.04326 70.8967 1.14411 70.8441C1.24496 70.7916 1.35966 70.7653 1.48822 70.7653C1.61677 70.7653 1.73076 70.7916 1.83019 70.8441C1.92962 70.8967 2.00775 70.9773 2.06456 71.0859C2.12067 71.1946 2.14873 71.3335 2.14873 71.5025V72.0991H1.91009V71.511C1.91009 71.3945 1.89304 71.3008 1.85895 71.2298C1.82486 71.158 1.77657 71.1062 1.71407 71.0742C1.65086 71.0416 1.57557 71.0252 1.48822 71.0252C1.40086 71.0252 1.32451 71.0416 1.25917 71.0742C1.19383 71.1069 1.1434 71.1591 1.10789 71.2308C1.07167 71.3026 1.05356 71.3974 1.05356 71.5153V71.9798H3.001V72.244ZM2.02089 71.217L3.001 70.6801V70.9869L2.02089 71.5153V71.217ZM3.03509 69.6906C3.03509 69.8483 3.00029 69.9843 2.93069 70.0986C2.86037 70.2123 2.76236 70.3 2.63665 70.3618C2.51023 70.4229 2.36322 70.4534 2.1956 70.4534C2.02799 70.4534 1.88026 70.4229 1.75242 70.3618C1.62387 70.3 1.52373 70.2141 1.45199 70.104C1.37955 69.9932 1.34333 69.8639 1.34333 69.7162C1.34333 69.631 1.35753 69.5468 1.38594 69.4637C1.41435 69.3806 1.46052 69.305 1.52444 69.2368C1.58765 69.1686 1.67145 69.1143 1.77586 69.0738C1.88026 69.0333 2.00881 69.0131 2.16151 69.0131H2.26804V70.2744H2.05072V69.2687C1.95839 69.2687 1.876 69.2872 1.80356 69.3241C1.73111 69.3604 1.67394 69.4122 1.63204 69.4797C1.59013 69.5464 1.56918 69.6253 1.56918 69.7162C1.56918 69.8163 1.59404 69.903 1.64376 69.9761C1.69276 70.0486 1.75668 70.1043 1.83552 70.1434C1.91435 70.1825 1.99887 70.202 2.08907 70.202H2.23395C2.35753 70.202 2.46229 70.1807 2.54823 70.1381C2.63346 70.0947 2.69844 70.0347 2.74319 69.958C2.78722 69.8813 2.80924 69.7922 2.80924 69.6906C2.80924 69.6246 2.80001 69.5649 2.78154 69.5116C2.76236 69.4577 2.73395 69.4111 2.69631 69.3721C2.65796 69.333 2.61037 69.3028 2.55356 69.2815L2.62174 69.0386C2.70412 69.0642 2.77657 69.1072 2.83907 69.1675C2.90086 69.2279 2.94915 69.3025 2.98395 69.3913C3.01804 69.48 3.03509 69.5798 3.03509 69.6906ZM3.64873 67.9701C3.64873 68.0915 3.6331 68.1959 3.60185 68.2833C3.57131 68.3707 3.53083 68.4435 3.4804 68.5017C3.43069 68.5592 3.37742 68.605 3.3206 68.6391L3.17998 68.4388C3.20981 68.4161 3.2439 68.3874 3.28225 68.3526C3.32131 68.3177 3.35505 68.2702 3.38346 68.2098C3.41258 68.1487 3.42714 68.0688 3.42714 67.9701C3.42714 67.838 3.39518 67.729 3.33126 67.643C3.26733 67.5571 3.16719 67.5141 3.03083 67.5141H2.69844V67.5354C2.72827 67.5539 2.7652 67.5802 2.80924 67.6143C2.85256 67.6476 2.89127 67.6959 2.92536 67.7592C2.95874 67.8217 2.97543 67.9062 2.97543 68.0127C2.97543 68.1448 2.94418 68.2634 2.88168 68.3685C2.81918 68.4729 2.72827 68.5557 2.60895 68.6168C2.48964 68.6771 2.34475 68.7073 2.17429 68.7073C2.00668 68.7073 1.86073 68.6778 1.73644 68.6189C1.61144 68.5599 1.51485 68.4779 1.44667 68.3728C1.37778 68.2677 1.34333 68.1462 1.34333 68.0084C1.34333 67.9019 1.36108 67.8174 1.3966 67.7549C1.4314 67.6917 1.47117 67.6434 1.51591 67.61C1.55995 67.5759 1.59617 67.5496 1.62458 67.5312V67.5056H1.36464V67.2627H3.04787C3.1885 67.2627 3.30285 67.2947 3.39091 67.3586C3.47969 67.4218 3.54468 67.507 3.58587 67.6143C3.62778 67.7208 3.64873 67.8394 3.64873 67.9701ZM2.74958 67.9786C2.74958 67.8778 2.7265 67.7925 2.68033 67.7229C2.63417 67.6533 2.56776 67.6004 2.48111 67.5642C2.39447 67.528 2.29077 67.5099 2.17003 67.5099C2.05214 67.5099 1.94809 67.5276 1.85789 67.5631C1.76769 67.5986 1.69702 67.6512 1.64589 67.7208C1.59475 67.7904 1.56918 67.8763 1.56918 67.9786C1.56918 68.0851 1.59617 68.1739 1.65015 68.245C1.70412 68.3153 1.77657 68.3682 1.86748 68.4037C1.95839 68.4385 2.05924 68.4559 2.17003 68.4559C2.28367 68.4559 2.38417 68.4381 2.47152 68.4026C2.55817 68.3664 2.62635 68.3131 2.67607 68.2428C2.72508 68.1718 2.74958 68.0837 2.74958 67.9786ZM3.001 66.8025H1.36464V66.5511H3.001V66.8025ZM1.09191 66.6746C1.09191 66.7236 1.07522 66.7659 1.04184 66.8014C1.00846 66.8362 0.968329 66.8536 0.921454 66.8536C0.874579 66.8536 0.834451 66.8362 0.80107 66.8014C0.76769 66.7659 0.750999 66.7236 0.750999 66.6746C0.750999 66.6256 0.76769 66.5837 0.80107 66.5489C0.834451 66.5134 0.874579 66.4957 0.921454 66.4957C0.968329 66.4957 1.00846 66.5134 1.04184 66.5489C1.07522 66.5837 1.09191 66.6256 1.09191 66.6746ZM1.73111 64.9315L1.79503 65.1573C1.75739 65.1715 1.72081 65.1925 1.6853 65.2202C1.64908 65.2472 1.61925 65.2841 1.59581 65.331C1.57238 65.3779 1.56066 65.4379 1.56066 65.511C1.56066 65.6112 1.58374 65.6946 1.62991 65.7614C1.67536 65.8274 1.73324 65.8605 1.80356 65.8605C1.86606 65.8605 1.91542 65.8377 1.95164 65.7923C1.98786 65.7468 2.01804 65.6758 2.04219 65.5792L2.10185 65.3363C2.13736 65.19 2.1917 65.081 2.26485 65.0092C2.33729 64.9375 2.43069 64.9016 2.54503 64.9016C2.63878 64.9016 2.72259 64.9286 2.79645 64.9826C2.87032 65.0359 2.92856 65.1105 2.97117 65.2063C3.01378 65.3022 3.03509 65.4137 3.03509 65.5408C3.03509 65.7078 2.99887 65.8459 2.92643 65.9553C2.85398 66.0646 2.74816 66.1339 2.60895 66.163L2.54929 65.9244C2.63736 65.9016 2.70341 65.8587 2.74745 65.7955C2.79148 65.7315 2.8135 65.6481 2.8135 65.5451C2.8135 65.4279 2.78864 65.3349 2.73893 65.266C2.6885 65.1964 2.62813 65.1616 2.55782 65.1616C2.501 65.1616 2.45341 65.1815 2.41506 65.2212C2.376 65.261 2.34688 65.3221 2.3277 65.4045L2.26378 65.6772C2.22827 65.8271 2.17323 65.9372 2.09866 66.0075C2.02337 66.0771 1.92927 66.1119 1.81634 66.1119C1.72401 66.1119 1.64233 66.0859 1.57131 66.0341C1.50029 65.9815 1.44454 65.9102 1.40405 65.82C1.36357 65.7291 1.34333 65.6261 1.34333 65.511C1.34333 65.3491 1.37884 65.222 1.44986 65.1296C1.52089 65.0366 1.61464 64.9705 1.73111 64.9315ZM1.36464 63.8115H1.5777V64.6595H1.36464V63.8115ZM0.97259 64.4124L0.97259 64.161H2.53225C2.60327 64.161 2.65654 64.1507 2.69205 64.1301C2.72685 64.1088 2.75029 64.0818 2.76236 64.0491C2.77373 64.0157 2.77941 63.9806 2.77941 63.9436C2.77941 63.9159 2.77799 63.8932 2.77515 63.8755C2.7716 63.8577 2.76876 63.8435 2.76662 63.8328L2.99248 63.7817C2.99887 63.7988 3.00526 63.8225 3.01165 63.8531C3.01876 63.8836 3.02231 63.9223 3.02231 63.9692C3.02231 64.0402 3.00704 64.1098 2.9765 64.178C2.94596 64.2455 2.89944 64.3016 2.83694 64.3463C2.77444 64.3904 2.6956 64.4124 2.60043 64.4124H0.97259ZM3.03509 62.7648C3.03509 62.9225 3.00029 63.0585 2.93069 63.1729C2.86037 63.2865 2.76236 63.3742 2.63665 63.436C2.51023 63.4971 2.36322 63.5276 2.1956 63.5276C2.02799 63.5276 1.88026 63.4971 1.75242 63.436C1.62387 63.3742 1.52373 63.2883 1.45199 63.1782C1.37955 63.0674 1.34333 62.9381 1.34333 62.7904C1.34333 62.7052 1.35753 62.621 1.38594 62.5379C1.41435 62.4548 1.46052 62.3792 1.52444 62.311C1.58765 62.2428 1.67145 62.1885 1.77586 62.148C1.88026 62.1075 2.00881 62.0873 2.16151 62.0873H2.26804V63.3486H2.05072V62.343C1.95839 62.343 1.876 62.3614 1.80356 62.3984C1.73111 62.4346 1.67394 62.4864 1.63204 62.5539C1.59013 62.6207 1.56918 62.6995 1.56918 62.7904C1.56918 62.8905 1.59404 62.9772 1.64376 63.0503C1.69276 63.1228 1.75668 63.1785 1.83552 63.2176C1.91435 63.2567 1.99887 63.2762 2.08907 63.2762H2.23395C2.35753 63.2762 2.46229 63.2549 2.54823 63.2123C2.63346 63.169 2.69844 63.1089 2.74319 63.0322C2.78722 62.9555 2.80924 62.8664 2.80924 62.7648C2.80924 62.6988 2.80001 62.6391 2.78154 62.5859C2.76236 62.5319 2.73395 62.4854 2.69631 62.4463C2.65796 62.4072 2.61037 62.3771 2.55356 62.3557L2.62174 62.1128C2.70412 62.1384 2.77657 62.1814 2.83907 62.2418C2.90086 62.3021 2.94915 62.3767 2.98395 62.4655C3.01804 62.5543 3.03509 62.654 3.03509 62.7648ZM3.001 61.7048H1.36464V61.4619H1.61179V61.4449C1.53083 61.4151 1.46513 61.3611 1.41471 61.2829C1.36428 61.2048 1.33907 61.1168 1.33907 61.0187C1.33907 61.0003 1.33942 60.9772 1.34013 60.9495C1.34084 60.9218 1.34191 60.9008 1.34333 60.8866H1.59901C1.59688 60.8952 1.59368 60.9147 1.58942 60.9452C1.58445 60.9751 1.58197 61.0067 1.58197 61.0401C1.58197 61.1196 1.59866 61.1906 1.63204 61.2531C1.66471 61.3149 1.71016 61.3639 1.7684 61.4001C1.82593 61.4356 1.89162 61.4534 1.96549 61.4534H3.001V61.7048ZM3.03509 59.9523C3.03509 60.11 3.00029 60.246 2.93069 60.3604C2.86037 60.474 2.76236 60.5617 2.63665 60.6235C2.51023 60.6846 2.36322 60.7151 2.1956 60.7151C2.02799 60.7151 1.88026 60.6846 1.75242 60.6235C1.62387 60.5617 1.52373 60.4758 1.45199 60.3657C1.37955 60.2549 1.34333 60.1256 1.34333 59.9779C1.34333 59.8927 1.35753 59.8085 1.38594 59.7254C1.41435 59.6423 1.46052 59.5667 1.52444 59.4985C1.58765 59.4303 1.67145 59.376 1.77586 59.3355C1.88026 59.295 2.00881 59.2748 2.16151 59.2748H2.26804V60.5361H2.05072V59.5305C1.95839 59.5305 1.876 59.5489 1.80356 59.5859C1.73111 59.6221 1.67394 59.6739 1.63204 59.7414C1.59013 59.8082 1.56918 59.887 1.56918 59.9779C1.56918 60.078 1.59404 60.1647 1.64376 60.2378C1.69276 60.3103 1.75668 60.366 1.83552 60.4051C1.91435 60.4442 1.99887 60.4637 2.08907 60.4637H2.23395C2.35753 60.4637 2.46229 60.4424 2.54823 60.3998C2.63346 60.3565 2.69844 60.2964 2.74319 60.2197C2.78722 60.143 2.80924 60.0539 2.80924 59.9523C2.80924 59.8863 2.80001 59.8266 2.78154 59.7734C2.76236 59.7194 2.73395 59.6729 2.69631 59.6338C2.65796 59.5947 2.61037 59.5646 2.55356 59.5432L2.62174 59.3003C2.70412 59.3259 2.77657 59.3689 2.83907 59.4293C2.90086 59.4896 2.94915 59.5642 2.98395 59.653C3.01804 59.7418 3.03509 59.8415 3.03509 59.9523ZM3.03509 58.2744C3.03509 58.4108 3.00064 58.5312 2.93175 58.6356C2.86215 58.74 2.76414 58.8217 2.63772 58.8806C2.51059 58.9396 2.36037 58.969 2.18708 58.969C2.0152 58.969 1.86606 58.9396 1.73964 58.8806C1.61322 58.8217 1.51556 58.7396 1.44667 58.6345C1.37778 58.5294 1.34333 58.4079 1.34333 58.2702C1.34333 58.1636 1.36108 58.0795 1.3966 58.0177C1.4314 57.9552 1.47117 57.9076 1.51591 57.8749C1.55995 57.8415 1.59617 57.8156 1.62458 57.7972V57.7758H0.819181V57.5244H3.001V57.7673H2.74958V57.7972C2.77941 57.8156 2.81705 57.8419 2.86251 57.876C2.90725 57.9101 2.94738 57.9587 2.98289 58.0219C3.01769 58.0851 3.03509 58.1693 3.03509 58.2744ZM2.80924 58.2403C2.80924 58.1395 2.78296 58.0543 2.7304 57.9847C2.67714 57.9151 2.60363 57.8621 2.50988 57.8259C2.41542 57.7897 2.3064 57.7716 2.18282 57.7716C2.06066 57.7716 1.95377 57.7893 1.86215 57.8249C1.76982 57.8604 1.69809 57.9129 1.64695 57.9825C1.5951 58.0521 1.56918 58.1381 1.56918 58.2403C1.56918 58.3469 1.59652 58.4356 1.65121 58.5067C1.70519 58.577 1.7787 58.6299 1.87174 58.6654C1.96407 58.7002 2.06776 58.7176 2.18282 58.7176C2.29929 58.7176 2.40512 58.6999 2.50029 58.6643C2.59475 58.6281 2.67003 58.5749 2.72614 58.5045C2.78154 58.4335 2.80924 58.3454 2.80924 58.2403ZM3.001 56.1512H0.819181V55.414C0.819181 55.2428 0.850076 55.1029 0.911866 54.9942C0.972945 54.8849 1.05569 54.8039 1.16009 54.7513C1.26449 54.6988 1.38097 54.6725 1.50952 54.6725C1.63807 54.6725 1.75491 54.6988 1.86002 54.7513C1.96513 54.8032 2.04894 54.8834 2.11144 54.9921C2.17323 55.1008 2.20412 55.24 2.20412 55.4097V55.9381H1.96975V55.4182C1.96975 55.3011 1.94951 55.207 1.90902 55.1359C1.86854 55.0649 1.81385 55.0134 1.74496 54.9815C1.67536 54.9488 1.59688 54.9325 1.50952 54.9325C1.42216 54.9325 1.34404 54.9488 1.27515 54.9815C1.20626 55.0134 1.15228 55.0653 1.11322 55.137C1.07344 55.2087 1.05356 55.3039 1.05356 55.4225V55.887H3.001V56.1512ZM3.03509 53.6125C3.03509 53.7702 3.00029 53.9062 2.93069 54.0205C2.86037 54.1342 2.76236 54.2219 2.63665 54.2837C2.51023 54.3447 2.36322 54.3753 2.1956 54.3753C2.02799 54.3753 1.88026 54.3447 1.75242 54.2837C1.62387 54.2219 1.52373 54.1359 1.45199 54.0258C1.37955 53.9151 1.34333 53.7858 1.34333 53.6381C1.34333 53.5528 1.35753 53.4687 1.38594 53.3856C1.41435 53.3025 1.46052 53.2268 1.52444 53.1587C1.58765 53.0905 1.67145 53.0361 1.77586 52.9957C1.88026 52.9552 2.00881 52.9349 2.16151 52.9349H2.26804V54.1963H2.05072V53.1906C1.95839 53.1906 1.876 53.2091 1.80356 53.246C1.73111 53.2822 1.67394 53.3341 1.63204 53.4016C1.59013 53.4683 1.56918 53.5472 1.56918 53.6381C1.56918 53.7382 1.59404 53.8249 1.64376 53.898C1.69276 53.9704 1.75668 54.0262 1.83552 54.0653C1.91435 54.1043 1.99887 54.1239 2.08907 54.1239H2.23395C2.35753 54.1239 2.46229 54.1026 2.54823 54.0599C2.63346 54.0166 2.69844 53.9566 2.74319 53.8799C2.78722 53.8032 2.80924 53.7141 2.80924 53.6125C2.80924 53.5464 2.80001 53.4868 2.78154 53.4335C2.76236 53.3795 2.73395 53.333 2.69631 53.294C2.65796 53.2549 2.61037 53.2247 2.55356 53.2034L2.62174 52.9605C2.70412 52.9861 2.77657 53.029 2.83907 53.0894C2.90086 53.1498 2.94915 53.2244 2.98395 53.3131C3.01804 53.4019 3.03509 53.5017 3.03509 53.6125ZM3.001 52.5525H1.36464L1.36464 52.3096H1.61179V52.2925C1.53083 52.2627 1.46513 52.2087 1.41471 52.1306C1.36428 52.0525 1.33907 51.9644 1.33907 51.8664C1.33907 51.8479 1.33942 51.8249 1.34013 51.7972C1.34084 51.7695 1.34191 51.7485 1.34333 51.7343H1.59901C1.59688 51.7428 1.59368 51.7624 1.58942 51.7929C1.58445 51.8227 1.58197 51.8543 1.58197 51.8877C1.58197 51.9673 1.59866 52.0383 1.63204 52.1008C1.66471 52.1626 1.71016 52.2116 1.7684 52.2478C1.82593 52.2833 1.89162 52.3011 1.96549 52.3011H3.001V52.5525ZM3.001 49.8851V50.5584H0.819181V49.8553C0.819181 49.6437 0.86286 49.4625 0.950218 49.312C1.03687 49.1614 1.16151 49.046 1.32415 48.9657C1.48608 48.8855 1.67998 48.8454 1.90583 48.8454C2.1331 48.8454 2.32877 48.8858 2.49283 48.9668C2.65618 49.0478 2.78189 49.1657 2.86996 49.3205C2.95732 49.4753 3.001 49.6635 3.001 49.8851ZM2.76662 50.2942V49.9022C2.76662 49.7218 2.73182 49.5723 2.66222 49.4537C2.59262 49.3351 2.49354 49.2466 2.36499 49.1884C2.23644 49.1302 2.08339 49.101 1.90583 49.101C1.72969 49.101 1.57806 49.1298 1.45093 49.1873C1.32309 49.2449 1.22508 49.3308 1.15689 49.4451C1.088 49.5595 1.05356 49.7019 1.05356 49.8723V50.2942H2.76662ZM3.03935 47.9547C3.03935 48.0584 3.01982 48.1525 2.98076 48.237C2.94099 48.3216 2.88381 48.3887 2.80924 48.4384C2.73395 48.4881 2.64304 48.513 2.53651 48.513C2.44276 48.513 2.36677 48.4945 2.30853 48.4576C2.24958 48.4206 2.20341 48.3713 2.17003 48.3095C2.13665 48.2477 2.11179 48.1795 2.09546 48.1049C2.07841 48.0297 2.06492 47.954 2.05498 47.878C2.04219 47.7786 2.0326 47.698 2.02621 47.6362C2.01911 47.5737 2.00739 47.5282 1.99106 47.4998C1.97472 47.4707 1.94631 47.4562 1.90583 47.4562H1.89731C1.79219 47.4562 1.71052 47.4849 1.65228 47.5424C1.59404 47.5993 1.56492 47.6856 1.56492 47.8013C1.56492 47.9214 1.5912 48.0155 1.64376 48.0836C1.69631 48.1518 1.75242 48.1998 1.81208 48.2275L1.72685 48.4661C1.62742 48.4235 1.55001 48.3667 1.49461 48.2956C1.4385 48.2239 1.39944 48.1458 1.37742 48.0613C1.35469 47.976 1.34333 47.8922 1.34333 47.8098C1.34333 47.7573 1.34972 47.6969 1.36251 47.6287C1.37458 47.5598 1.39979 47.4934 1.43814 47.4295C1.4765 47.3649 1.53438 47.3113 1.61179 47.2687C1.68921 47.226 1.7929 47.2047 1.92287 47.2047H3.001V47.4562H2.77941V47.4689C2.81492 47.486 2.85292 47.5144 2.8934 47.5542C2.93388 47.5939 2.96833 47.6469 2.99674 47.7129C3.02515 47.779 3.03935 47.8596 3.03935 47.9547ZM2.8135 47.9164C2.8135 47.817 2.79397 47.7331 2.75491 47.665C2.71584 47.5961 2.66542 47.5442 2.60363 47.5094C2.54184 47.4739 2.47685 47.4562 2.40867 47.4562H2.17856C2.19134 47.4668 2.20306 47.4902 2.21371 47.5265C2.22366 47.562 2.23253 47.6032 2.24035 47.65C2.24745 47.6962 2.25384 47.7413 2.25952 47.7853C2.26449 47.8287 2.26876 47.8638 2.27231 47.8908C2.28083 47.9562 2.29468 48.0172 2.31385 48.0741C2.33232 48.1302 2.36037 48.1756 2.39802 48.2104C2.43495 48.2445 2.48537 48.2616 2.54929 48.2616C2.63665 48.2616 2.7027 48.2292 2.74745 48.1646C2.79148 48.0993 2.8135 48.0165 2.8135 47.9164ZM3.61464 46.6425C3.61464 46.6851 3.61108 46.7231 3.60398 46.7565C3.59759 46.7899 3.5912 46.813 3.58481 46.8257L3.36322 46.7618C3.37884 46.7007 3.38452 46.6468 3.38026 46.5999C3.376 46.553 3.35505 46.5115 3.31741 46.4752C3.28047 46.4383 3.22046 46.4046 3.13736 46.374L3.00952 46.3272L1.36464 46.9323V46.6595L2.66861 46.2078V46.1908L1.36464 45.7391V45.4664L3.23964 46.161C3.32415 46.1922 3.39411 46.2309 3.44951 46.2771C3.50562 46.3233 3.54716 46.3769 3.57415 46.438C3.60114 46.4983 3.61464 46.5665 3.61464 46.6425ZM1.91009 44.2013C1.64162 44.2013 1.39482 44.1665 1.16968 44.0969C0.943826 44.0266 0.736085 43.9264 0.546454 43.7964V43.5749C0.616766 43.626 0.703414 43.6739 0.806397 43.7187C0.90867 43.7627 1.02124 43.8014 1.14411 43.8348C1.26627 43.8682 1.39269 43.8945 1.52337 43.9136C1.65405 43.9321 1.78296 43.9413 1.91009 43.9413C2.07912 43.9413 2.25064 43.925 2.42465 43.8923C2.59866 43.8597 2.76023 43.8156 2.90938 43.7602C3.05853 43.7048 3.17998 43.643 3.27373 43.5749V43.7964C3.0841 43.9264 2.87671 44.0266 2.65157 44.0969C2.42572 44.1665 2.17856 44.2013 1.91009 44.2013ZM3.001 43.0803L3.001 43.3573L0.819181 42.5561L0.819181 42.2834L3.001 41.4823V41.7592L1.16435 42.4112V42.4283L3.001 43.0803ZM2.14873 42.978V41.8615H2.3831V42.978H2.14873ZM2.33197 40.1453H1.36464V39.8938H3.001V40.1453H2.72401V40.1623C2.80711 40.2007 2.87778 40.2603 2.93601 40.3413C2.99354 40.4222 3.02231 40.5245 3.02231 40.6481C3.02231 40.7504 2.99993 40.8413 2.95519 40.9208C2.90974 41.0004 2.84155 41.0629 2.75064 41.1083C2.65902 41.1538 2.54361 41.1765 2.40441 41.1765H1.36464V40.9251H2.38736C2.50668 40.9251 2.60185 40.8917 2.67287 40.8249C2.7439 40.7575 2.77941 40.6715 2.77941 40.5671C2.77941 40.5046 2.76343 40.4411 2.73147 40.3764C2.69951 40.3111 2.6505 40.2564 2.58445 40.2124C2.5184 40.1676 2.43424 40.1453 2.33197 40.1453ZM3.03509 38.7686C3.03509 38.922 2.99887 39.0541 2.92643 39.1649C2.85398 39.2757 2.7542 39.3609 2.62706 39.4206C2.49993 39.4802 2.35469 39.51 2.19134 39.51C2.02515 39.51 1.87849 39.4795 1.75135 39.4184C1.62351 39.3566 1.52373 39.2707 1.45199 39.1606C1.37955 39.0498 1.34333 38.9206 1.34333 38.7728C1.34333 38.6578 1.36464 38.5541 1.40725 38.4617C1.44986 38.3694 1.50952 38.2938 1.58623 38.2348C1.66293 38.1759 1.75242 38.1393 1.85469 38.1251V38.3765C1.78012 38.3957 1.71407 38.4383 1.65654 38.5044C1.5983 38.5697 1.56918 38.6578 1.56918 38.7686C1.56918 38.8666 1.59475 38.9525 1.64589 39.0264C1.69631 39.0995 1.76769 39.1567 1.86002 39.1979C1.95164 39.2384 2.05924 39.2586 2.18282 39.2586C2.30924 39.2586 2.41932 39.2387 2.51307 39.199C2.60682 39.1585 2.67962 39.1017 2.73147 39.0285C2.78331 38.9546 2.80924 38.868 2.80924 38.7686C2.80924 38.7032 2.79787 38.6439 2.77515 38.5907C2.75242 38.5374 2.71975 38.4923 2.67714 38.4554C2.63452 38.4184 2.58339 38.3921 2.52373 38.3765V38.1251C2.62032 38.1393 2.70732 38.1745 2.78474 38.2306C2.86144 38.286 2.92252 38.3595 2.96797 38.4511C3.01272 38.542 3.03509 38.6478 3.03509 38.7686ZM1.36464 37.0459H1.5777L1.5777 37.8939H1.36464L1.36464 37.0459ZM0.97259 37.6468V37.3953H2.53225C2.60327 37.3953 2.65654 37.385 2.69205 37.3644C2.72685 37.3431 2.75029 37.3162 2.76236 37.2835C2.77373 37.2501 2.77941 37.2149 2.77941 37.178C2.77941 37.1503 2.77799 37.1276 2.77515 37.1098C2.7716 37.0921 2.76876 37.0779 2.76662 37.0672L2.99248 37.0161C2.99887 37.0331 3.00526 37.0569 3.01165 37.0875C3.01876 37.118 3.02231 37.1567 3.02231 37.2036C3.02231 37.2746 3.00704 37.3442 2.9765 37.4124C2.94596 37.4799 2.89944 37.536 2.83694 37.5807C2.77444 37.6247 2.6956 37.6468 2.60043 37.6468H0.97259ZM3.001 36.6677H1.36464V36.4163H3.001V36.6677ZM1.09191 36.5399C1.09191 36.5889 1.07522 36.6311 1.04184 36.6666C1.00846 36.7014 0.968329 36.7188 0.921454 36.7188C0.874579 36.7188 0.834451 36.7014 0.80107 36.6666C0.76769 36.6311 0.750999 36.5889 0.750999 36.5399C0.750999 36.4909 0.76769 36.449 0.80107 36.4142C0.834451 36.3787 0.874579 36.3609 0.921454 36.3609C0.968329 36.3609 1.00846 36.3787 1.04184 36.4142C1.07522 36.449 1.09191 36.4909 1.09191 36.5399ZM3.03509 35.291C3.03509 35.4388 2.99993 35.5684 2.92962 35.6799C2.85931 35.7907 2.76094 35.8773 2.63452 35.9398C2.5081 36.0016 2.36037 36.0325 2.19134 36.0325C2.02089 36.0325 1.87209 36.0016 1.74496 35.9398C1.61783 35.8773 1.51911 35.7907 1.4488 35.6799C1.37849 35.5684 1.34333 35.4388 1.34333 35.291C1.34333 35.1433 1.37849 35.014 1.4488 34.9032C1.51911 34.7917 1.61783 34.7051 1.74496 34.6433C1.87209 34.5808 2.02089 34.5495 2.19134 34.5495C2.36037 34.5495 2.5081 34.5808 2.63452 34.6433C2.76094 34.7051 2.85931 34.7917 2.92962 34.9032C2.99993 35.014 3.03509 35.1433 3.03509 35.291ZM2.80924 35.291C2.80924 35.1788 2.78047 35.0865 2.72295 35.014C2.66542 34.9416 2.58978 34.888 2.49603 34.8532C2.40228 34.8184 2.30072 34.801 2.19134 34.801C2.08197 34.801 1.98005 34.8184 1.88559 34.8532C1.79113 34.888 1.71478 34.9416 1.65654 35.014C1.5983 35.0865 1.56918 35.1788 1.56918 35.291C1.56918 35.4032 1.5983 35.4956 1.65654 35.568C1.71478 35.6405 1.79113 35.6941 1.88559 35.7289C1.98005 35.7637 2.08197 35.7811 2.19134 35.7811C2.30072 35.7811 2.40228 35.7637 2.49603 35.7289C2.58978 35.6941 2.66542 35.6405 2.72295 35.568C2.78047 35.4956 2.80924 35.4032 2.80924 35.291ZM2.01662 33.9143H3.001V34.1658H1.36464V33.9229H1.62032V33.9016C1.53722 33.8632 1.47046 33.805 1.42003 33.7268C1.3689 33.6487 1.34333 33.5479 1.34333 33.4243C1.34333 33.3135 1.36606 33.2165 1.41151 33.1334C1.45626 33.0503 1.52444 32.9857 1.61606 32.9396C1.70697 32.8934 1.82202 32.8703 1.96123 32.8703H3.001V33.1217H1.97827C1.84972 33.1217 1.74958 33.1551 1.67785 33.2219C1.6054 33.2886 1.56918 33.3802 1.56918 33.4967C1.56918 33.577 1.58658 33.6487 1.62138 33.7119C1.65618 33.7744 1.70697 33.8238 1.77373 33.86C1.84049 33.8962 1.92145 33.9143 2.01662 33.9143ZM3.001 31.533H0.819181V30.2248H1.05356L1.05356 31.2688H1.79077L1.79077 30.3228H2.02515V31.2688H3.001V31.533ZM3.001 29.8064H1.36464V29.555H3.001V29.8064ZM1.09191 29.6785C1.09191 29.7276 1.07522 29.7698 1.04184 29.8053C1.00846 29.8401 0.968329 29.8575 0.921454 29.8575C0.874579 29.8575 0.834451 29.8401 0.80107 29.8053C0.76769 29.7698 0.750999 29.7276 0.750999 29.6785C0.750999 29.6295 0.76769 29.5876 0.80107 29.5528C0.834451 29.5173 0.874579 29.4996 0.921454 29.4996C0.968329 29.4996 1.00846 29.5173 1.04184 29.5528C1.07522 29.5876 1.09191 29.6295 1.09191 29.6785ZM2.01662 28.8431H3.001V29.0945H1.36464V28.8516H1.62032V28.8303C1.53722 28.7919 1.47046 28.7337 1.42003 28.6556C1.3689 28.5774 1.34333 28.4766 1.34333 28.353C1.34333 28.2422 1.36606 28.1453 1.41151 28.0622C1.45626 27.9791 1.52444 27.9144 1.61606 27.8683C1.70697 27.8221 1.82202 27.799 1.96123 27.799H3.001V28.0504H1.97827C1.84972 28.0504 1.74958 28.0838 1.67785 28.1506C1.6054 28.2173 1.56918 28.309 1.56918 28.4254C1.56918 28.5057 1.58658 28.5774 1.62138 28.6406C1.65618 28.7031 1.70697 28.7525 1.77373 28.7887C1.84049 28.8249 1.92145 28.8431 2.01662 28.8431ZM3.03935 26.8581C3.03935 26.9617 3.01982 27.0559 2.98076 27.1404C2.94099 27.2249 2.88381 27.292 2.80924 27.3417C2.73395 27.3914 2.64304 27.4163 2.53651 27.4163C2.44276 27.4163 2.36677 27.3978 2.30853 27.3609C2.24958 27.324 2.20341 27.2746 2.17003 27.2128C2.13665 27.151 2.11179 27.0828 2.09546 27.0083C2.07841 26.933 2.06492 26.8573 2.05498 26.7813C2.04219 26.6819 2.0326 26.6013 2.02621 26.5395C2.01911 26.477 2.00739 26.4316 1.99106 26.4032C1.97472 26.374 1.94631 26.3595 1.90583 26.3595H1.89731C1.79219 26.3595 1.71052 26.3882 1.65228 26.4458C1.59404 26.5026 1.56492 26.5889 1.56492 26.7046C1.56492 26.8247 1.5912 26.9188 1.64376 26.987C1.69631 27.0551 1.75242 27.1031 1.81208 27.1308L1.72685 27.3694C1.62742 27.3268 1.55001 27.27 1.49461 27.199C1.4385 27.1272 1.39944 27.0491 1.37742 26.9646C1.35469 26.8794 1.34333 26.7956 1.34333 26.7132C1.34333 26.6606 1.34972 26.6002 1.36251 26.5321C1.37458 26.4632 1.39979 26.3968 1.43814 26.3328C1.4765 26.2682 1.53438 26.2146 1.61179 26.172C1.68921 26.1294 1.7929 26.1081 1.92287 26.1081H3.001V26.3595H2.77941V26.3723C2.81492 26.3893 2.85292 26.4177 2.8934 26.4575C2.93388 26.4973 2.96833 26.5502 2.99674 26.6162C3.02515 26.6823 3.03935 26.7629 3.03935 26.8581ZM2.8135 26.8197C2.8135 26.7203 2.79397 26.6365 2.75491 26.5683C2.71584 26.4994 2.66542 26.4475 2.60363 26.4127C2.54184 26.3772 2.47685 26.3595 2.40867 26.3595H2.17856C2.19134 26.3701 2.20306 26.3936 2.21371 26.4298C2.22366 26.4653 2.23253 26.5065 2.24035 26.5534C2.24745 26.5995 2.25384 26.6446 2.25952 26.6887C2.26449 26.732 2.26876 26.7671 2.27231 26.7941C2.28083 26.8595 2.29468 26.9206 2.31385 26.9774C2.33232 27.0335 2.36037 27.0789 2.39802 27.1137C2.43495 27.1478 2.48537 27.1649 2.54929 27.1649C2.63665 27.1649 2.7027 27.1326 2.74745 27.0679C2.79148 27.0026 2.8135 26.9198 2.8135 26.8197ZM0.819181 25.3977H3.001V25.6492H0.819181V25.3977ZM3.001 24.9372H1.36464V24.6858H3.001V24.9372ZM1.09191 24.8094C1.09191 24.8584 1.07522 24.9007 1.04184 24.9362C1.00846 24.971 0.968329 24.9884 0.921454 24.9884C0.874579 24.9884 0.834451 24.971 0.80107 24.9362C0.76769 24.9007 0.750999 24.8584 0.750999 24.8094C0.750999 24.7604 0.76769 24.7185 0.80107 24.6837C0.834451 24.6482 0.874579 24.6304 0.921454 24.6304C0.968329 24.6304 1.00846 24.6482 1.04184 24.6837C1.07522 24.7185 1.09191 24.7604 1.09191 24.8094ZM3.001 24.2722H2.80924L1.61606 23.3432H1.59901L1.59901 24.2424H1.36464L1.36464 23.0194H1.56492L2.74958 23.9228H2.76662V22.9895H3.001V24.2722ZM3.03509 21.9631C3.03509 22.1207 3.00029 22.2568 2.93069 22.3711C2.86037 22.4847 2.76236 22.5725 2.63665 22.6342C2.51023 22.6953 2.36322 22.7259 2.1956 22.7259C2.02799 22.7259 1.88026 22.6953 1.75242 22.6342C1.62387 22.5725 1.52373 22.4865 1.45199 22.3764C1.37955 22.2656 1.34333 22.1364 1.34333 21.9886C1.34333 21.9034 1.35753 21.8193 1.38594 21.7362C1.41435 21.6531 1.46052 21.5774 1.52444 21.5092C1.58765 21.4411 1.67145 21.3867 1.77586 21.3462C1.88026 21.3058 2.00881 21.2855 2.16151 21.2855H2.26804L2.26804 22.5469H2.05072L2.05072 21.5412C1.95839 21.5412 1.876 21.5597 1.80356 21.5966C1.73111 21.6328 1.67394 21.6847 1.63204 21.7521C1.59013 21.8189 1.56918 21.8977 1.56918 21.9886C1.56918 22.0888 1.59404 22.1754 1.64376 22.2486C1.69276 22.321 1.75668 22.3768 1.83552 22.4158C1.91435 22.4549 1.99887 22.4744 2.08907 22.4744H2.23395C2.35753 22.4744 2.46229 22.4531 2.54823 22.4105C2.63346 22.3672 2.69844 22.3072 2.74319 22.2305C2.78722 22.1538 2.80924 22.0646 2.80924 21.9631C2.80924 21.897 2.80001 21.8374 2.78154 21.7841C2.76236 21.7301 2.73395 21.6836 2.69631 21.6445C2.65796 21.6055 2.61037 21.5753 2.55356 21.554L2.62174 21.3111C2.70412 21.3367 2.77657 21.3796 2.83907 21.44C2.90086 21.5004 2.94915 21.5749 2.98395 21.6637C3.01804 21.7525 3.03509 21.8523 3.03509 21.9631ZM3.03509 20.2852C3.03509 20.4215 3.00064 20.5419 2.93175 20.6463C2.86215 20.7507 2.76414 20.8324 2.63772 20.8913C2.51059 20.9503 2.36037 20.9798 2.18708 20.9798C2.0152 20.9798 1.86606 20.9503 1.73964 20.8913C1.61322 20.8324 1.51556 20.7504 1.44667 20.6453C1.37778 20.5401 1.34333 20.4187 1.34333 20.2809C1.34333 20.1744 1.36108 20.0902 1.3966 20.0284C1.4314 19.9659 1.47117 19.9183 1.51591 19.8857C1.55995 19.8523 1.59617 19.8264 1.62458 19.8079V19.7866H0.819181V19.5352H3.001V19.7781H2.74958V19.8079C2.77941 19.8264 2.81705 19.8526 2.86251 19.8867C2.90725 19.9208 2.94738 19.9695 2.98289 20.0327C3.01769 20.0959 3.03509 20.1801 3.03509 20.2852ZM2.80924 20.2511C2.80924 20.1502 2.78296 20.065 2.7304 19.9954C2.67714 19.9258 2.60363 19.8729 2.50988 19.8367C2.41542 19.8004 2.3064 19.7823 2.18282 19.7823C2.06066 19.7823 1.95377 19.8001 1.86215 19.8356C1.76982 19.8711 1.69809 19.9237 1.64695 19.9933C1.5951 20.0629 1.56918 20.1488 1.56918 20.2511C1.56918 20.3576 1.59652 20.4464 1.65121 20.5174C1.70519 20.5877 1.7787 20.6406 1.87174 20.6761C1.96407 20.7109 2.06776 20.7283 2.18282 20.7283C2.29929 20.7283 2.40512 20.7106 2.50029 20.6751C2.59475 20.6389 2.67003 20.5856 2.72614 20.5153C2.78154 20.4443 2.80924 20.3562 2.80924 20.2511ZM2.08054 18.5029C2.34901 18.5029 2.59617 18.538 2.82202 18.6083C3.04716 18.6779 3.25455 18.7777 3.44418 18.9077V19.1293C3.37387 19.0781 3.28722 19.0306 3.18424 18.9865C3.08197 18.9418 2.96975 18.9027 2.84759 18.8693C2.72472 18.8359 2.59795 18.81 2.46726 18.7916C2.33587 18.7724 2.20697 18.7628 2.08054 18.7628C1.91151 18.7628 1.73999 18.7791 1.56599 18.8118C1.39198 18.8445 1.2304 18.8885 1.08126 18.9439C0.932107 18.9993 0.810658 19.0611 0.716908 19.1293V18.9077C0.906539 18.7777 1.11428 18.6779 1.34013 18.6083C1.56527 18.538 1.81208 18.5029 2.08054 18.5029Z" fill="#77838F"/>
<path opacity="0.8" d="M16.467 105.716H230.202" stroke="#D8D8D8" stroke-width="0.5"/>
<path opacity="0.8" d="M16.467 90.913H230.202" stroke="#D8D8D8" stroke-width="0.5"/>
<path opacity="0.8" d="M16.467 76.352H230.202" stroke="#D8D8D8" stroke-width="0.5"/>
<path opacity="0.8" d="M16.467 61.549H230.202" stroke="#D8D8D8" stroke-width="0.5"/>
<path opacity="0.8" d="M16.467 46.988H230.202" stroke="#D8D8D8" stroke-width="0.5"/>
<path opacity="0.8" d="M16.467 32.185H230.202" stroke="#D8D8D8" stroke-width="0.5"/>
<path opacity="0.8" d="M16.467 17.624H230.202" stroke="#D8D8D8" stroke-width="0.5"/>
<path opacity="0.8" d="M16.467 2.578H230.202" stroke="#D8D8D8" stroke-width="0.5"/>
<g opacity="0.8">
<path opacity="0.8" d="M17.531 105.594V108.021" stroke="#BBBFC4" stroke-width="0.5"/>
<path opacity="0.8" d="M59.257 105.594V108.021" stroke="#BBBFC4" stroke-width="0.5"/>
<path opacity="0.8" d="M100.982 105.594V108.021" stroke="#BBBFC4" stroke-width="0.5"/>
<path opacity="0.8" d="M142.281 105.594V108.021" stroke="#BBBFC4" stroke-width="0.5"/>
<path opacity="0.8" d="M184.007 105.594V108.021" stroke="#BBBFC4" stroke-width="0.5"/>
<path opacity="0.8" d="M225.732 105.594V108.021" stroke="#BBBFC4" stroke-width="0.5"/>
<path opacity="0.8" d="M16.467 105.715H230.202" stroke="#BBBFC4" stroke-width="0.5"/>
</g>
<mask id="mask0_2_2" style="mask-type:luminance" maskUnits="userSpaceOnUse" x="16" y="2" width="215" height="104">
<path d="M230.202 2.69897H16.467V105.594H230.202V2.69897Z" fill="white"/>
</mask>
<g mask="url(#mask0_2_2)">
<path d="M18.563 105.594H19.93L20.272 105.423L20.614 104.488L20.956 103.724L21.298 103.577L21.641 101.884L21.983 102.049L22.325 98.149L22.667 100.101L23.006 99.102L23.348 98.967L23.69 95.633L24.032 94.763L24.374 93.916L24.716 93.246L25.058 92.488L25.4 87.937L25.742 92.458L26.084 94.322L26.426 94.004L26.768 93.234L27.11 82.88L27.452 87.225L27.794 94.01L28.136 93.581L28.478 93.199L28.82 92.911L29.162 90.571L29.504 95.316L29.846 95.475L30.188 90.33L30.53 94.463L30.872 95.316L31.214 95.34L31.556 93.982L31.898 94.846L32.24 95.099L32.582 95.299L32.924 94.74L33.266 93.923L33.608 93.441L33.95 94.987L34.292 95.399L34.634 100.185L34.976 102.078L35.318 92.159L35.66 90.907L36.002 93.182L36.344 93.441L36.686 100.261L37.028 95.034L37.37 93.27L37.712 93.005L38.054 93.393L38.396 96.344L38.738 94.41L39.08 93.775L39.422 95.527L39.764 96.215L40.106 95.163L40.448 94.275L40.79 96.268L41.132 95.204L41.474 96.604L41.816 95.493L42.158 96.881L42.5 93.953L42.842 92.607L43.184 88.691L43.526 86.004L43.868 90.004L44.21 92.832L44.552 92.356L44.894 101.335L45.236 101.547L45.578 101.594L45.92 102.088L46.262 102.429L46.604 101.847L46.946 101.53L47.288 102.247L47.63 102.588L47.972 102.582L48.314 101.747L48.641 100.191L48.983 101.326L49.325 99.797L49.667 101.338L50.009 103.484L50.351 102.767L50.693 101.079L51.035 100.626L51.377 97.41L51.719 101.385L52.061 101.191L52.403 100.303L52.745 103.343L53.087 94.2L53.429 99.092L53.771 103.443L54.113 103.678L54.455 102.108L54.797 101.232L55.139 95.993L55.481 102.449L55.823 103.966L56.165 102.178L56.507 101.361L56.849 102.096L57.191 99.615L57.533 102.815L57.875 103.285L58.217 103.026L58.559 103.673L58.901 103.209L59.241 104.502L59.582 103.408L59.924 103.12L60.266 102.773L60.608 102.444L60.95 104.255L61.292 104.273L61.634 104.373L61.976 104.244L62.317 103.985L62.659 103.226L63.001 104.314L63.343 104.42L63.685 103.979L64.027 103.85L64.369 104.062L64.71 102.421L65.052 104.021L65.394 101.792L65.736 103.474L66.078 104.591L66.42 102.927L66.762 102.868L67.104 104.608L67.445 104.755L67.787 104.473L68.129 104.397L68.471 104.514L68.813 104.743L69.155 104.819L69.497 104.766L69.838 103.855L70.18 104.008L70.522 103.22L70.864 103.291L71.206 101.11L71.548 104.497L71.89 104.509L72.232 104.709L72.573 104.25L72.915 104.485L73.257 104.914L73.599 104.596L73.941 102.344L74.283 104.708L74.625 104.808L74.966 104.684L75.308 103.637L75.65 101.062L75.992 104.331L76.334 104.061L76.676 103.549L77.018 102.837L77.36 104.048L77.701 102.819L78.043 103.201L78.385 103.86L78.727 103.848L79.069 103.619L79.411 103.525L79.753 102.855L80.094 102.943L80.436 103.807L80.778 101.726L81.12 101.785L81.462 101.95L81.804 102.796L82.146 102.779L82.488 102.732L82.829 99.863L83.171 102.291L83.513 102.767L83.855 103.284L84.197 102.749L84.539 101.379L84.881 101.82L85.222 103.72L85.564 103.597L85.906 104.214L86.248 103.785L86.59 103.679L86.932 103.208L87.274 104.119L87.616 104.066L87.957 103.695L88.299 103.954L88.641 103.26L88.983 104.148L89.325 103.613L89.667 103.919L90.009 103.513L90.35 103.525L90.692 103.942L91.034 104.412L91.376 103.648L91.718 104.448L92.06 104.795L92.402 105.342L92.743 104.742L93.085 104.901L93.427 105.077L93.769 104.842L94.111 105.23L94.453 105.283L94.795 105.001L95.137 105.142L95.478 105.036L95.82 104.695L96.162 105.071L96.504 104.207L96.846 105.177L97.188 105.33L97.53 104.942L97.871 104.689L98.213 104.76L98.555 105.083L98.897 104.472L99.239 105.177L99.581 104.783L99.923 104.871L100.265 104.971L100.606 104.889L100.948 105.013L101.29 104.889L101.632 104.607L101.974 105.112L102.316 105.012L102.658 105.271L102.999 105.283L103.341 105.242L103.683 105.048L104.025 105.272H104.367L104.709 105.101L105.051 105.025L105.393 105.143L105.734 105.372L106.076 105.178L106.418 105.354L106.76 105.313L107.102 105.131L107.444 105.296H107.786L108.127 105.372L108.469 105.178L108.811 104.69L109.153 104.972L109.495 104.896L109.837 104.784L110.179 104.843L110.521 105.225L110.862 105.284L111.204 105.019L111.546 105.09L111.888 105.031L112.23 105.196L112.572 105.155L112.914 105.031L113.255 105.149L113.597 104.778L113.939 104.972L114.281 104.866L114.623 104.601L114.965 105.095L115.307 104.889L115.649 104.83L115.99 104.853L116.332 104.83L116.674 104.906L117.016 105.088L117.358 105.129L117.7 105.194L118.042 104.835L118.383 105.141L118.725 105.088L119.067 105.17L119.409 105.199H120.093L120.435 104.987L120.777 105.022L121.118 105.275L121.46 105.193L121.802 105.258L122.144 105.282L122.486 105.158L122.828 104.976L123.17 105.058L123.511 105.205L123.853 104.94L124.195 104.74L124.537 104.722L124.879 104.963L125.221 105.11L125.563 104.628L125.904 104.757L126.246 104.945L126.588 104.816L126.93 104.845L127.272 105.092L127.614 105.045L127.956 105.021L128.298 104.457L128.639 104.492L128.981 104.598L129.323 104.616L129.665 104.816L130.007 104.881L130.349 104.452L130.691 104.858L131.032 105.07L131.374 104.253L131.716 104.947L132.058 104.435L132.4 102.924L132.742 104.624L133.084 103.871L133.426 104.588L133.767 104.153L134.109 99.314L134.451 103.159L134.793 104.729L135.135 104.27L135.477 104.911L135.819 105.205L136.16 104.94L136.502 105.011L136.844 104.67L137.186 104.982L137.528 105.111L137.87 105.311L138.212 105.393L138.554 105.205L138.895 105.211L139.237 105.246L139.579 105.117L139.921 105.246L140.263 105.299L140.605 105.04L140.947 105.081L141.288 105.175L141.63 105.24L141.972 105.022L142.314 104.798L142.656 104.322L142.998 105.198L143.34 105.08L143.682 105.133H144.023L144.365 104.88L144.707 104.974L145.049 104.939L145.391 105.356L145.733 105.209L146.075 105.368L146.416 105.315L146.758 104.909L147.1 104.233L147.442 105.168L147.784 104.01L148.126 105.445L148.468 105.386L148.81 105.415L149.151 105.409L149.493 105.491L149.835 105.344L150.177 105.444L150.519 105.426L150.861 104.862L151.203 105.185L151.544 105.038L151.886 104.873L152.228 105.379L152.57 102.379L152.912 100.909L153.254 105.378L153.596 100.921L153.938 100.051L154.279 104.972L154.621 105.431L154.963 105.513L155.305 104.808L155.641 103.502L155.983 105.519L156.325 105.348L156.666 105.324L157.008 105.495L157.35 105.448L157.692 105.454L158.034 105.319L158.376 105.266L158.718 105.448L159.06 105.313L159.401 105.507L159.743 105.536L160.085 105.489L160.427 105.483L160.769 105.248L161.111 105.265L161.453 105.359L161.794 105.042L162.136 105.389L162.478 105.23L162.82 105.418L163.162 105.112L163.504 105.524L163.846 105.483L164.187 105.5L164.529 105.518L164.871 105.524L165.213 105.542L165.555 105.513L165.897 105.442H166.239L166.581 105.524L166.922 105.536L167.264 105.542L167.606 105.513L167.948 105.437L168.29 105.419L168.632 105.495L168.974 105.477L169.315 105.524L169.657 105.512L169.999 105.377L170.341 105.318L170.683 104.895L171.025 105.477L171.367 105.418L171.709 105.447L172.05 105.171L172.392 105.524L172.734 105.53L173.076 105.395L173.418 105.371L173.76 105.43L174.102 105.318L174.443 105.541L174.785 105.447L175.127 105.459L175.469 105.365L175.811 105.153L176.153 105.441L176.495 105.465L176.837 105.453L177.178 104.559L177.52 105.312L177.862 105.253L178.204 105.435L178.546 105.382L178.888 105.311L179.23 105.352L179.571 105.34L179.913 105.405H180.255L180.597 105.37L180.939 105.458L181.281 105.282L181.623 105.347L181.965 105.312L182.306 105.477L182.648 105.46L182.99 105.395L183.332 105.283L183.674 105.4L184.016 105.388L184.358 105.494L184.699 105.294L185.041 105.394L185.383 105.329L185.725 105.235L186.067 105.317L186.409 105.399L186.751 105.452L187.092 105.44L187.434 105.481L187.776 105.475L188.118 105.487L188.46 105.469L188.802 105.381L189.144 105.51L189.486 105.481L189.827 105.44L190.169 105.258L190.511 105.393L190.853 105.458L191.195 105.505L191.537 105.387L191.879 105.552L192.22 105.387L192.562 105.434L192.904 105.222L193.246 105.445L193.588 105.545L193.93 105.516L194.272 105.44L194.614 105.434L194.955 105.405L195.297 105.376L195.639 105.529L195.981 105.47L196.323 105.458L196.665 105.493L197.007 105.481L197.348 105.44L197.69 105.522L198.032 105.434L198.374 105.475L198.716 105.51L199.058 105.492L199.4 105.404L199.742 105.304L200.083 105.339L200.425 105.415L200.767 105.521L201.109 105.221L201.451 105.321L201.793 105.356L202.135 105.268L202.476 105.397L202.818 105.473L203.16 105.438L203.502 105.25L203.844 105.403L204.186 105.32L204.528 105.291L204.87 102.375L205.211 103.61L205.553 103.11L205.895 69.548L206.237 19.229L206.571 104.102L206.913 104.731L207.255 104.937L207.596 105.401L207.938 105.436L208.28 105.318L208.622 105.312L208.964 105.394L209.306 105.229L209.648 69.004L209.99 94.487L210.331 89.495L210.673 57.927L211.015 105.341L211.357 103.512L211.699 103.536L212.041 105.447L212.383 105.43L212.724 105.442L213.066 105.301L213.408 105.277L213.75 105.436L214.092 105.354L214.434 105.23L214.776 105.459L215.118 105.512L215.459 105.447L215.801 105.377L216.143 105.418L216.485 105.5L216.827 105.459L217.169 105.13L217.511 105.106L217.852 104.136L218.194 105.453L218.536 104.982L218.878 105.053L219.22 105.459H219.562L219.904 105.453L220.246 105.529L220.587 105.341L220.929 105.2L221.271 105.547L221.613 105.43L221.955 105.447L222.297 105L222.639 105.406L222.98 105.43L223.322 105.33L223.664 105.506L224.006 105.124L224.348 105.418L224.69 104.724L225.032 105.048L225.374 104.772L225.715 105.272L226.057 105.419L226.399 104.619L226.741 105.419L227.083 105.39L227.425 105.337L227.767 103.567L228.108 105.448" stroke="#BBBFC4" stroke-width="0.5" stroke-linecap="round" stroke-linejoin="round"/>
</g>
<path d="M13.6513 108.596V110.778H13.3956L12.2067 109.065H12.1854V110.778H11.9212V108.596H12.1769L13.3701 110.314H13.3914V108.596H13.6513ZM14.8107 110.812C14.6629 110.812 14.5333 110.777 14.4218 110.707C14.311 110.636 14.2244 110.538 14.1619 110.412C14.1001 110.285 14.0692 110.137 14.0692 109.968C14.0692 109.798 14.1001 109.649 14.1619 109.522C14.2244 109.395 14.311 109.296 14.4218 109.226C14.5333 109.156 14.6629 109.12 14.8107 109.12C14.9584 109.12 15.0877 109.156 15.1985 109.226C15.31 109.296 15.3966 109.395 15.4584 109.522C15.5209 109.649 15.5522 109.798 15.5522 109.968C15.5522 110.137 15.5209 110.285 15.4584 110.412C15.3966 110.538 15.31 110.636 15.1985 110.707C15.0877 110.777 14.9584 110.812 14.8107 110.812ZM14.8107 110.586C14.9229 110.586 15.0152 110.557 15.0877 110.5C15.1601 110.442 15.2137 110.367 15.2485 110.273C15.2833 110.179 15.3007 110.078 15.3007 109.968C15.3007 109.859 15.2833 109.757 15.2485 109.663C15.2137 109.568 15.1601 109.492 15.0877 109.434C15.0152 109.375 14.9229 109.346 14.8107 109.346C14.6985 109.346 14.6061 109.375 14.5337 109.434C14.4612 109.492 14.4076 109.568 14.3728 109.663C14.338 109.757 14.3206 109.859 14.3206 109.968C14.3206 110.078 14.338 110.179 14.3728 110.273C14.4076 110.367 14.4612 110.442 14.5337 110.5C14.6061 110.557 14.6985 110.586 14.8107 110.586ZM17.2154 109.142L16.6103 110.778H16.3546L15.7495 109.142H16.0222L16.4739 110.446H16.491L16.9427 109.142H17.2154ZM18.3058 109.278V109.086C18.3058 109.028 18.3161 108.966 18.3367 108.901C18.358 108.835 18.3885 108.771 18.4283 108.71C18.4688 108.648 18.5174 108.595 18.5743 108.549L18.7106 108.66C18.6659 108.724 18.6268 108.791 18.5934 108.86C18.5608 108.929 18.5444 109.003 18.5444 109.082V109.278H18.3058ZM18.9844 110.778V110.586L19.7046 109.798C19.7891 109.706 19.8587 109.625 19.9134 109.557C19.9681 109.488 20.0086 109.424 20.0348 109.363C20.0618 109.302 20.0753 109.238 20.0753 109.171C20.0753 109.095 20.0569 109.028 20.0199 108.972C19.9837 108.916 19.934 108.873 19.8708 108.842C19.8076 108.812 19.7365 108.796 19.6577 108.796C19.5739 108.796 19.5007 108.814 19.4382 108.849C19.3765 108.883 19.3285 108.931 19.2944 108.993C19.261 109.054 19.2444 109.127 19.2444 109.21H18.9929C18.9929 109.082 19.0224 108.97 19.0814 108.873C19.1403 108.777 19.2206 108.701 19.3221 108.647C19.4244 108.593 19.5391 108.566 19.6662 108.566C19.7941 108.566 19.9074 108.593 20.0061 108.647C20.1048 108.701 20.1822 108.774 20.2383 108.866C20.2944 108.957 20.3225 109.059 20.3225 109.171C20.3225 109.252 20.3079 109.33 20.2788 109.407C20.2504 109.483 20.2007 109.568 20.1297 109.662C20.0593 109.755 19.9617 109.868 19.8367 110.002L19.3466 110.527V110.544H20.3608V110.778H18.9844ZM20.8008 110.778V110.586L21.521 109.798C21.6055 109.706 21.6751 109.625 21.7298 109.557C21.7845 109.488 21.825 109.424 21.8512 109.363C21.8782 109.302 21.8917 109.238 21.8917 109.171C21.8917 109.095 21.8733 109.028 21.8363 108.972C21.8001 108.916 21.7504 108.873 21.6872 108.842C21.624 108.812 21.5529 108.796 21.4741 108.796C21.3903 108.796 21.3172 108.814 21.2547 108.849C21.1929 108.883 21.1449 108.931 21.1108 108.993C21.0775 109.054 21.0608 109.127 21.0608 109.21H20.8093C20.8093 109.082 20.8388 108.97 20.8978 108.873C20.9567 108.777 21.037 108.701 21.1385 108.647C21.2408 108.593 21.3555 108.566 21.4826 108.566C21.6105 108.566 21.7238 108.593 21.8225 108.647C21.9212 108.701 21.9986 108.774 22.0547 108.866C22.1108 108.957 22.1389 109.059 22.1389 109.171C22.1389 109.252 22.1243 109.33 22.0952 109.407C22.0668 109.483 22.0171 109.568 21.9461 109.662C21.8757 109.755 21.7781 109.868 21.6531 110.002L21.163 110.527V110.544H22.1772V110.778H20.8008Z" fill="#77838F"/>
<path d="M55.2605 110.778H54.5872V108.596H55.2903C55.502 108.596 55.6831 108.64 55.8337 108.727C55.9842 108.814 56.0996 108.939 56.1799 109.101C56.2601 109.263 56.3003 109.457 56.3003 109.683C56.3003 109.91 56.2598 110.106 56.1788 110.27C56.0979 110.433 55.98 110.559 55.8251 110.647C55.6703 110.734 55.4821 110.778 55.2605 110.778ZM54.8514 110.544H55.2435C55.4239 110.544 55.5734 110.509 55.692 110.439C55.8106 110.37 55.899 110.271 55.9572 110.142C56.0155 110.013 56.0446 109.86 56.0446 109.683C56.0446 109.507 56.0158 109.355 55.9583 109.228C55.9008 109.1 55.8148 109.002 55.7005 108.934C55.5861 108.865 55.4437 108.831 55.2733 108.831H54.8514V110.544ZM57.3954 110.812C57.2378 110.812 57.1018 110.777 56.9874 110.708C56.8738 110.637 56.7861 110.539 56.7243 110.414C56.6632 110.287 56.6327 110.14 56.6327 109.973C56.6327 109.805 56.6632 109.657 56.7243 109.529C56.7861 109.401 56.872 109.301 56.9821 109.229C57.0929 109.157 57.2221 109.12 57.3699 109.12C57.4551 109.12 57.5393 109.135 57.6224 109.163C57.7055 109.191 57.7811 109.238 57.8493 109.301C57.9175 109.365 57.9718 109.448 58.0123 109.553C58.0528 109.657 58.073 109.786 58.073 109.939V110.045H56.8116V109.828H57.8173C57.8173 109.735 57.7989 109.653 57.7619 109.581C57.7257 109.508 57.6739 109.451 57.6064 109.409C57.5396 109.367 57.4608 109.346 57.3699 109.346C57.2697 109.346 57.1831 109.371 57.1099 109.421C57.0375 109.47 56.9817 109.534 56.9427 109.613C56.9036 109.691 56.8841 109.776 56.8841 109.866V110.011C56.8841 110.135 56.9054 110.239 56.948 110.325C56.9913 110.41 57.0513 110.475 57.128 110.52C57.2047 110.564 57.2939 110.586 57.3954 110.586C57.4615 110.586 57.5212 110.577 57.5744 110.559C57.6284 110.539 57.6749 110.511 57.714 110.473C57.753 110.435 57.7832 110.387 57.8045 110.331L58.0474 110.399C58.0219 110.481 57.9789 110.554 57.9185 110.616C57.8582 110.678 57.7836 110.726 57.6948 110.761C57.606 110.795 57.5062 110.812 57.3954 110.812ZM59.1202 110.812C58.9668 110.812 58.8347 110.776 58.7239 110.703C58.6131 110.631 58.5279 110.531 58.4682 110.404C58.4086 110.277 58.3788 110.132 58.3788 109.968C58.3788 109.802 58.4093 109.656 58.4704 109.528C58.5322 109.401 58.6181 109.301 58.7282 109.229C58.839 109.157 58.9682 109.12 59.116 109.12C59.231 109.12 59.3347 109.142 59.427 109.184C59.5194 109.227 59.595 109.287 59.654 109.363C59.7129 109.44 59.7495 109.529 59.7637 109.632H59.5123C59.4931 109.557 59.4505 109.491 59.3844 109.434C59.3191 109.375 59.231 109.346 59.1202 109.346C59.0222 109.346 58.9363 109.372 58.8624 109.423C58.7893 109.473 58.7321 109.545 58.6909 109.637C58.6504 109.729 58.6302 109.836 58.6302 109.96C58.6302 110.086 58.6501 110.196 58.6898 110.29C58.7303 110.384 58.7871 110.457 58.8603 110.508C58.9341 110.56 59.0208 110.586 59.1202 110.586C59.1856 110.586 59.2449 110.575 59.2981 110.552C59.3514 110.529 59.3965 110.497 59.4334 110.454C59.4704 110.412 59.4966 110.36 59.5123 110.301H59.7637C59.7495 110.397 59.7143 110.484 59.6582 110.562C59.6028 110.638 59.5293 110.7 59.4377 110.745C59.3468 110.79 59.241 110.812 59.1202 110.812ZM61.1923 108.596V109.346H60.9579V108.596H61.1923ZM61.6358 110.778V110.586L62.3559 109.798C62.4405 109.706 62.5101 109.625 62.5647 109.557C62.6194 109.488 62.6599 109.424 62.6862 109.363C62.7132 109.302 62.7267 109.238 62.7267 109.171C62.7267 109.095 62.7082 109.028 62.6713 108.972C62.6351 108.916 62.5853 108.873 62.5221 108.842C62.4589 108.812 62.3879 108.796 62.3091 108.796C62.2253 108.796 62.1521 108.814 62.0896 108.849C62.0278 108.883 61.9799 108.931 61.9458 108.993C61.9124 109.054 61.8957 109.127 61.8957 109.21H61.6443C61.6443 109.082 61.6738 108.97 61.7327 108.873C61.7917 108.777 61.8719 108.701 61.9735 108.647C62.0758 108.593 62.1905 108.566 62.3176 108.566C62.4454 108.566 62.5587 108.593 62.6574 108.647C62.7561 108.701 62.8336 108.774 62.8897 108.866C62.9458 108.957 62.9738 109.059 62.9738 109.171C62.9738 109.252 62.9593 109.33 62.9302 109.407C62.9017 109.483 62.852 109.568 62.781 109.662C62.7107 109.755 62.613 109.868 62.488 110.002L61.998 110.527V110.544H63.0122V110.778H61.6358ZM63.4522 110.778V110.586L64.1723 109.798C64.2569 109.706 64.3265 109.625 64.3811 109.557C64.4358 109.488 64.4763 109.424 64.5026 109.363C64.5296 109.302 64.5431 109.238 64.5431 109.171C64.5431 109.095 64.5246 109.028 64.4877 108.972C64.4515 108.916 64.4017 108.873 64.3385 108.842C64.2753 108.812 64.2043 108.796 64.1255 108.796C64.0417 108.796 63.9685 108.814 63.906 108.849C63.8442 108.883 63.7963 108.931 63.7622 108.993C63.7288 109.054 63.7121 109.127 63.7121 109.21H63.4607C63.4607 109.082 63.4902 108.97 63.5491 108.873C63.6081 108.777 63.6883 108.701 63.7899 108.647C63.8922 108.593 64.0069 108.566 64.134 108.566C64.2618 108.566 64.3751 108.593 64.4738 108.647C64.5726 108.701 64.65 108.774 64.7061 108.866C64.7622 108.957 64.7902 109.059 64.7902 109.171C64.7902 109.252 64.7757 109.33 64.7466 109.407C64.7182 109.483 64.6684 109.568 64.5974 109.662C64.5271 109.755 64.4294 109.868 64.3044 110.002L63.8144 110.527V110.544H64.8286V110.778H63.4522Z" fill="#77838F"/>
<path d="M97.8014 108.596H98.0656V110.156C98.0656 110.295 98.0401 110.413 97.9889 110.511C97.9378 110.608 97.8657 110.682 97.7727 110.732C97.6796 110.783 97.5699 110.808 97.4435 110.808C97.3242 110.808 97.218 110.786 97.1249 110.743C97.0319 110.699 96.9587 110.636 96.9055 110.555C96.8522 110.474 96.8256 110.378 96.8256 110.267H97.0855C97.0855 110.328 97.1008 110.382 97.1313 110.429C97.1626 110.474 97.2052 110.51 97.2592 110.535C97.3131 110.561 97.3746 110.573 97.4435 110.573C97.5195 110.573 97.5841 110.557 97.6374 110.526C97.6906 110.494 97.7311 110.447 97.7588 110.385C97.7872 110.322 97.8014 110.246 97.8014 110.156V108.596ZM99.0425 110.816C98.9389 110.816 98.8448 110.797 98.7602 110.758C98.6757 110.718 98.6086 110.661 98.5589 110.586C98.5092 110.511 98.4843 110.42 98.4843 110.314C98.4843 110.22 98.5028 110.144 98.5397 110.086C98.5766 110.027 98.626 109.98 98.6878 109.947C98.7496 109.914 98.8178 109.889 98.8923 109.872C98.9676 109.855 99.0433 109.842 99.1193 109.832C99.2187 109.819 99.2993 109.81 99.3611 109.803C99.4236 109.796 99.469 109.784 99.4975 109.768C99.5266 109.752 99.5411 109.723 99.5411 109.683V109.674C99.5411 109.569 99.5124 109.488 99.4548 109.429C99.398 109.371 99.3117 109.342 99.196 109.342C99.0759 109.342 98.9818 109.368 98.9136 109.421C98.8455 109.473 98.7975 109.529 98.7698 109.589L98.5312 109.504C98.5738 109.404 98.6306 109.327 98.7016 109.272C98.7734 109.216 98.8515 109.176 98.936 109.154C99.0212 109.132 99.105 109.12 99.1874 109.12C99.24 109.12 99.3004 109.127 99.3685 109.14C99.4374 109.152 99.5038 109.177 99.5678 109.215C99.6324 109.254 99.686 109.311 99.7286 109.389C99.7712 109.466 99.7925 109.57 99.7925 109.7V110.778H99.5411V110.556H99.5283C99.5113 110.592 99.4829 110.63 99.4431 110.67C99.4033 110.711 99.3504 110.745 99.2844 110.774C99.2183 110.802 99.1377 110.816 99.0425 110.816ZM99.0809 110.591C99.1803 110.591 99.2641 110.571 99.3323 110.532C99.4012 110.493 99.4531 110.442 99.4879 110.381C99.5234 110.319 99.5411 110.254 99.5411 110.186V109.956C99.5305 109.968 99.507 109.98 99.4708 109.991C99.4353 110.001 99.3941 110.01 99.3472 110.017C99.3011 110.024 99.256 110.031 99.2119 110.037C99.1686 110.042 99.1335 110.046 99.1065 110.049C99.0411 110.058 98.98 110.072 98.9232 110.091C98.8671 110.109 98.8217 110.137 98.7869 110.175C98.7528 110.212 98.7357 110.262 98.7357 110.326C98.7357 110.414 98.768 110.48 98.8327 110.524C98.898 110.568 98.9808 110.591 99.0809 110.591ZM100.503 109.794V110.778H100.251V109.142H100.494V109.397H100.516C100.554 109.314 100.612 109.247 100.69 109.197C100.768 109.146 100.869 109.12 100.993 109.12C101.104 109.12 101.201 109.143 101.284 109.189C101.367 109.233 101.431 109.301 101.478 109.393C101.524 109.484 101.547 109.599 101.547 109.738V110.778H101.295V109.755C101.295 109.627 101.262 109.527 101.195 109.455C101.129 109.382 101.037 109.346 100.92 109.346C100.84 109.346 100.768 109.364 100.705 109.398C100.643 109.433 100.593 109.484 100.557 109.551C100.521 109.618 100.503 109.698 100.503 109.794ZM103.067 108.596V109.346H102.833V108.596H103.067ZM103.511 110.778V110.586L104.231 109.798C104.316 109.706 104.385 109.625 104.44 109.557C104.495 109.488 104.535 109.424 104.561 109.363C104.588 109.302 104.602 109.238 104.602 109.171C104.602 109.095 104.583 109.028 104.546 108.972C104.51 108.916 104.46 108.873 104.397 108.842C104.334 108.812 104.263 108.796 104.184 108.796C104.1 108.796 104.027 108.814 103.965 108.849C103.903 108.883 103.855 108.931 103.821 108.993C103.787 109.054 103.771 109.127 103.771 109.21H103.519C103.519 109.082 103.549 108.97 103.608 108.873C103.667 108.777 103.747 108.701 103.849 108.647C103.951 108.593 104.066 108.566 104.193 108.566C104.321 108.566 104.434 108.593 104.533 108.647C104.631 108.701 104.709 108.774 104.765 108.866C104.821 108.957 104.849 109.059 104.849 109.171C104.849 109.252 104.834 109.33 104.805 109.407C104.777 109.483 104.727 109.568 104.656 109.662C104.586 109.755 104.488 109.868 104.363 110.002L103.873 110.527V110.544H104.887V110.778H103.511ZM106.064 110.808C105.924 110.808 105.798 110.784 105.688 110.735C105.579 110.687 105.492 110.62 105.427 110.534C105.363 110.447 105.329 110.347 105.323 110.233H105.591C105.597 110.303 105.621 110.364 105.664 110.415C105.707 110.465 105.762 110.504 105.831 110.532C105.9 110.56 105.976 110.573 106.06 110.573C106.154 110.573 106.237 110.557 106.31 110.524C106.382 110.492 106.439 110.446 106.48 110.388C106.521 110.33 106.542 110.262 106.542 110.186C106.542 110.105 106.522 110.035 106.482 109.974C106.442 109.912 106.384 109.864 106.307 109.829C106.231 109.794 106.137 109.777 106.026 109.777H105.851V109.542H106.026C106.113 109.542 106.189 109.527 106.254 109.495C106.32 109.464 106.372 109.42 106.409 109.363C106.446 109.306 106.465 109.24 106.465 109.163C106.465 109.089 106.449 109.025 106.416 108.97C106.383 108.915 106.337 108.873 106.278 108.842C106.219 108.812 106.149 108.796 106.069 108.796C105.993 108.796 105.922 108.81 105.856 108.838C105.79 108.865 105.736 108.904 105.694 108.956C105.652 109.007 105.629 109.069 105.626 109.142H105.37C105.374 109.027 105.409 108.927 105.473 108.841C105.538 108.755 105.622 108.687 105.727 108.639C105.832 108.591 105.947 108.566 106.073 108.566C106.208 108.566 106.324 108.594 106.42 108.648C106.517 108.702 106.591 108.774 106.643 108.863C106.695 108.951 106.721 109.047 106.721 109.15C106.721 109.273 106.688 109.378 106.624 109.464C106.56 109.551 106.473 109.611 106.363 109.644V109.662C106.501 109.684 106.608 109.743 106.686 109.837C106.763 109.931 106.802 110.047 106.802 110.186C106.802 110.304 106.769 110.411 106.705 110.505C106.641 110.599 106.553 110.673 106.443 110.727C106.332 110.781 106.206 110.808 106.064 110.808Z" fill="#77838F"/>
<path d="M136.691 110.778V108.596H137.999V108.831H136.955V109.568H137.901V109.802H136.955V110.778H136.691ZM138.984 110.812C138.826 110.812 138.69 110.777 138.576 110.708C138.462 110.637 138.374 110.539 138.313 110.414C138.252 110.287 138.221 110.14 138.221 109.973C138.221 109.805 138.252 109.657 138.313 109.529C138.374 109.401 138.46 109.301 138.57 109.229C138.681 109.157 138.811 109.12 138.958 109.12C139.043 109.12 139.128 109.135 139.211 109.163C139.294 109.191 139.369 109.238 139.438 109.301C139.506 109.365 139.56 109.448 139.601 109.553C139.641 109.657 139.661 109.786 139.661 109.939V110.045H138.4V109.828H139.406C139.406 109.735 139.387 109.653 139.35 109.581C139.314 109.508 139.262 109.451 139.195 109.409C139.128 109.367 139.049 109.346 138.958 109.346C138.858 109.346 138.771 109.371 138.698 109.421C138.626 109.47 138.57 109.534 138.531 109.613C138.492 109.691 138.472 109.776 138.472 109.866V110.011C138.472 110.135 138.494 110.239 138.536 110.325C138.58 110.41 138.64 110.475 138.716 110.52C138.793 110.564 138.882 110.586 138.984 110.586C139.05 110.586 139.11 110.577 139.163 110.559C139.217 110.539 139.263 110.511 139.302 110.473C139.341 110.435 139.372 110.387 139.393 110.331L139.636 110.399C139.61 110.481 139.567 110.554 139.507 110.616C139.447 110.678 139.372 110.726 139.283 110.761C139.194 110.795 139.095 110.812 138.984 110.812ZM140.078 110.778V108.596H140.329V109.402H140.351C140.369 109.373 140.395 109.337 140.427 109.293C140.461 109.248 140.508 109.208 140.57 109.174C140.633 109.138 140.717 109.12 140.824 109.12C140.961 109.12 141.083 109.155 141.188 109.224C141.293 109.293 141.375 109.39 141.434 109.517C141.493 109.643 141.523 109.792 141.523 109.964C141.523 110.137 141.493 110.288 141.434 110.415C141.375 110.541 141.293 110.639 141.189 110.709C141.085 110.778 140.964 110.812 140.828 110.812C140.723 110.812 140.639 110.795 140.575 110.76C140.512 110.724 140.464 110.684 140.429 110.64C140.395 110.594 140.369 110.556 140.351 110.527H140.321V110.778H140.078ZM140.325 109.96C140.325 110.083 140.343 110.192 140.379 110.287C140.416 110.381 140.469 110.454 140.538 110.507C140.608 110.56 140.693 110.586 140.794 110.586C140.899 110.586 140.987 110.559 141.057 110.503C141.128 110.447 141.181 110.372 141.217 110.277C141.253 110.182 141.271 110.076 141.271 109.96C141.271 109.845 141.253 109.741 141.218 109.649C141.183 109.556 141.13 109.482 141.059 109.428C140.989 109.374 140.9 109.346 140.794 109.346C140.692 109.346 140.606 109.372 140.536 109.424C140.466 109.475 140.414 109.547 140.378 109.639C140.343 109.731 140.325 109.838 140.325 109.96ZM142.968 108.596V109.346H142.734V108.596H142.968ZM143.412 110.778V110.586L144.132 109.798C144.216 109.706 144.286 109.625 144.341 109.557C144.395 109.488 144.436 109.424 144.462 109.363C144.489 109.302 144.503 109.238 144.503 109.171C144.503 109.095 144.484 109.028 144.447 108.972C144.411 108.916 144.361 108.873 144.298 108.842C144.235 108.812 144.164 108.796 144.085 108.796C144.001 108.796 143.928 108.814 143.865 108.849C143.804 108.883 143.756 108.931 143.722 108.993C143.688 109.054 143.672 109.127 143.672 109.21H143.42C143.42 109.082 143.45 108.97 143.509 108.873C143.568 108.777 143.648 108.701 143.749 108.647C143.852 108.593 143.966 108.566 144.093 108.566C144.221 108.566 144.335 108.593 144.433 108.647C144.532 108.701 144.609 108.774 144.666 108.866C144.722 108.957 144.75 109.059 144.75 109.171C144.75 109.252 144.735 109.33 144.706 109.407C144.678 109.483 144.628 109.568 144.557 109.662C144.487 109.755 144.389 109.868 144.264 110.002L143.774 110.527V110.544H144.788V110.778H143.412ZM145.965 110.808C145.825 110.808 145.699 110.784 145.589 110.735C145.48 110.687 145.393 110.62 145.328 110.534C145.264 110.447 145.229 110.347 145.224 110.233H145.492C145.498 110.303 145.522 110.364 145.565 110.415C145.607 110.465 145.663 110.504 145.732 110.532C145.801 110.56 145.877 110.573 145.961 110.573C146.055 110.573 146.138 110.557 146.21 110.524C146.283 110.492 146.34 110.446 146.381 110.388C146.422 110.33 146.443 110.262 146.443 110.186C146.443 110.105 146.423 110.035 146.383 109.974C146.343 109.912 146.285 109.864 146.208 109.829C146.131 109.794 146.038 109.777 145.927 109.777H145.752V109.542H145.927C146.014 109.542 146.09 109.527 146.155 109.495C146.221 109.464 146.272 109.42 146.309 109.363C146.347 109.306 146.366 109.24 146.366 109.163C146.366 109.089 146.349 109.025 146.317 108.97C146.284 108.915 146.238 108.873 146.178 108.842C146.119 108.812 146.05 108.796 145.97 108.796C145.894 108.796 145.823 108.81 145.756 108.838C145.69 108.865 145.636 108.904 145.595 108.956C145.553 109.007 145.53 109.069 145.526 109.142H145.271C145.275 109.027 145.309 108.927 145.374 108.841C145.439 108.755 145.523 108.687 145.628 108.639C145.733 108.591 145.848 108.566 145.974 108.566C146.109 108.566 146.224 108.594 146.321 108.648C146.418 108.702 146.492 108.774 146.544 108.863C146.596 108.951 146.622 109.047 146.622 109.15C146.622 109.273 146.589 109.378 146.525 109.464C146.461 109.551 146.374 109.611 146.264 109.644V109.662C146.401 109.684 146.509 109.743 146.586 109.837C146.664 109.931 146.702 110.047 146.702 110.186C146.702 110.304 146.67 110.411 146.606 110.505C146.542 110.599 146.454 110.673 146.343 110.727C146.233 110.781 146.107 110.808 145.965 110.808Z" fill="#77838F"/>
<path d="M179.357 108.596H179.673L180.414 110.407H180.44L181.181 108.596H181.496V110.778H181.249V109.12H181.228L180.546 110.778H180.307L179.626 109.12H179.604V110.778H179.357V108.596ZM182.474 110.816C182.37 110.816 182.276 110.797 182.191 110.758C182.107 110.718 182.04 110.661 181.99 110.586C181.94 110.511 181.915 110.42 181.915 110.314C181.915 110.22 181.934 110.144 181.971 110.086C182.008 110.027 182.057 109.98 182.119 109.947C182.181 109.914 182.249 109.889 182.323 109.872C182.399 109.855 182.474 109.842 182.55 109.832C182.65 109.819 182.73 109.81 182.792 109.803C182.855 109.796 182.9 109.784 182.928 109.768C182.958 109.752 182.972 109.723 182.972 109.683V109.674C182.972 109.569 182.943 109.488 182.886 109.429C182.829 109.371 182.743 109.342 182.627 109.342C182.507 109.342 182.413 109.368 182.345 109.421C182.277 109.473 182.229 109.529 182.201 109.589L181.962 109.504C182.005 109.404 182.062 109.327 182.133 109.272C182.204 109.216 182.283 109.176 182.367 109.154C182.452 109.132 182.536 109.12 182.618 109.12C182.671 109.12 182.731 109.127 182.8 109.14C182.868 109.152 182.935 109.177 182.999 109.215C183.063 109.254 183.117 109.311 183.16 109.389C183.202 109.466 183.224 109.57 183.224 109.7V110.778H182.972V110.556H182.959C182.942 110.592 182.914 110.63 182.874 110.67C182.834 110.711 182.781 110.745 182.715 110.774C182.649 110.802 182.569 110.816 182.474 110.816ZM182.512 110.591C182.611 110.591 182.695 110.571 182.763 110.532C182.832 110.493 182.884 110.442 182.919 110.381C182.954 110.319 182.972 110.254 182.972 110.186V109.956C182.962 109.968 182.938 109.98 182.902 109.991C182.866 110.001 182.825 110.01 182.778 110.017C182.732 110.024 182.687 110.031 182.643 110.037C182.6 110.042 182.565 110.046 182.538 110.049C182.472 110.058 182.411 110.072 182.354 110.091C182.298 110.109 182.253 110.137 182.218 110.175C182.184 110.212 182.167 110.262 182.167 110.326C182.167 110.414 182.199 110.48 182.264 110.524C182.329 110.568 182.412 110.591 182.512 110.591ZM183.682 110.778V109.142H183.925V109.389H183.942C183.972 109.308 184.026 109.242 184.104 109.192C184.182 109.141 184.271 109.116 184.369 109.116C184.387 109.116 184.41 109.116 184.438 109.117C184.466 109.118 184.486 109.119 184.501 109.12V109.376C184.492 109.374 184.473 109.371 184.442 109.366C184.412 109.361 184.381 109.359 184.347 109.359C184.268 109.359 184.197 109.376 184.134 109.409C184.072 109.442 184.023 109.487 183.987 109.545C183.952 109.603 183.934 109.669 183.934 109.743V110.778H183.682ZM185.86 108.596V109.346H185.625V108.596H185.86ZM186.303 110.778V110.586L187.023 109.798C187.108 109.706 187.178 109.625 187.232 109.557C187.287 109.488 187.327 109.424 187.354 109.363C187.381 109.302 187.394 109.238 187.394 109.171C187.394 109.095 187.376 109.028 187.339 108.972C187.303 108.916 187.253 108.873 187.19 108.842C187.126 108.812 187.055 108.796 186.977 108.796C186.893 108.796 186.82 108.814 186.757 108.849C186.695 108.883 186.647 108.931 186.613 108.993C186.58 109.054 186.563 109.127 186.563 109.21H186.312C186.312 109.082 186.341 108.97 186.4 108.873C186.459 108.777 186.539 108.701 186.641 108.647C186.743 108.593 186.858 108.566 186.985 108.566C187.113 108.566 187.226 108.593 187.325 108.647C187.424 108.701 187.501 108.774 187.557 108.866C187.613 108.957 187.641 109.059 187.641 109.171C187.641 109.252 187.627 109.33 187.598 109.407C187.569 109.483 187.519 109.568 187.448 109.662C187.378 109.755 187.281 109.868 187.156 110.002L186.665 110.527V110.544H187.68V110.778H186.303ZM188.857 110.808C188.716 110.808 188.591 110.784 188.481 110.735C188.371 110.687 188.284 110.62 188.22 110.534C188.156 110.447 188.121 110.347 188.115 110.233H188.384C188.39 110.303 188.414 110.364 188.456 110.415C188.499 110.465 188.555 110.504 188.624 110.532C188.692 110.56 188.769 110.573 188.853 110.573C188.946 110.573 189.029 110.557 189.102 110.524C189.174 110.492 189.231 110.446 189.272 110.388C189.314 110.33 189.334 110.262 189.334 110.186C189.334 110.105 189.314 110.035 189.274 109.974C189.235 109.912 189.176 109.864 189.1 109.829C189.023 109.794 188.929 109.777 188.818 109.777H188.644V109.542H188.818C188.905 109.542 188.981 109.527 189.046 109.495C189.113 109.464 189.164 109.42 189.201 109.363C189.239 109.306 189.257 109.24 189.257 109.163C189.257 109.089 189.241 109.025 189.208 108.97C189.176 108.915 189.13 108.873 189.07 108.842C189.011 108.812 188.941 108.796 188.861 108.796C188.786 108.796 188.715 108.81 188.648 108.838C188.582 108.865 188.528 108.904 188.486 108.956C188.444 109.007 188.421 109.069 188.418 109.142H188.162C188.167 109.027 188.201 108.927 188.266 108.841C188.33 108.755 188.415 108.687 188.519 108.639C188.624 108.591 188.74 108.566 188.865 108.566C189 108.566 189.116 108.594 189.213 108.648C189.309 108.702 189.383 108.774 189.435 108.863C189.487 108.951 189.513 109.047 189.513 109.15C189.513 109.273 189.481 109.378 189.416 109.464C189.352 109.551 189.265 109.611 189.155 109.644V109.662C189.293 109.684 189.401 109.743 189.478 109.837C189.555 109.931 189.594 110.047 189.594 110.186C189.594 110.304 189.562 110.411 189.497 110.505C189.433 110.599 189.346 110.673 189.235 110.727C189.124 110.781 188.998 110.808 188.857 110.808Z" fill="#77838F"/>
<path d="M214.388 110.778H214.111L214.912 108.596H215.185L215.986 110.778H215.709L215.057 108.941H215.04L214.388 110.778ZM214.49 109.926H215.606V110.16H214.49V109.926ZM216.291 111.392V109.142H216.534V109.402H216.564C216.583 109.373 216.608 109.337 216.641 109.293C216.674 109.248 216.722 109.208 216.784 109.174C216.846 109.138 216.931 109.12 217.037 109.12C217.175 109.12 217.296 109.155 217.402 109.224C217.507 109.293 217.589 109.39 217.648 109.517C217.707 109.643 217.736 109.792 217.736 109.964C217.736 110.137 217.707 110.288 217.648 110.415C217.589 110.541 217.507 110.639 217.403 110.709C217.298 110.778 217.178 110.812 217.041 110.812C216.936 110.812 216.852 110.795 216.789 110.76C216.726 110.724 216.677 110.684 216.643 110.64C216.609 110.594 216.583 110.556 216.564 110.527H216.543V111.392H216.291ZM216.539 109.96C216.539 110.083 216.557 110.192 216.593 110.287C216.629 110.381 216.682 110.454 216.752 110.507C216.821 110.56 216.907 110.586 217.007 110.586C217.112 110.586 217.2 110.559 217.271 110.503C217.342 110.447 217.395 110.372 217.43 110.277C217.467 110.182 217.485 110.076 217.485 109.96C217.485 109.845 217.467 109.741 217.431 109.649C217.397 109.556 217.344 109.482 217.273 109.428C217.202 109.374 217.114 109.346 217.007 109.346C216.905 109.346 216.819 109.372 216.75 109.424C216.68 109.475 216.627 109.547 216.592 109.639C216.556 109.731 216.539 109.838 216.539 109.96ZM218.12 110.778V109.142H218.362V109.389H218.38C218.409 109.308 218.463 109.242 218.541 109.192C218.62 109.141 218.708 109.116 218.806 109.116C218.824 109.116 218.847 109.116 218.875 109.117C218.903 109.118 218.924 109.119 218.938 109.12V109.376C218.929 109.374 218.91 109.371 218.879 109.366C218.849 109.361 218.818 109.359 218.784 109.359C218.705 109.359 218.634 109.376 218.571 109.409C218.509 109.442 218.46 109.487 218.424 109.545C218.389 109.603 218.371 109.669 218.371 109.743V110.778H218.12ZM220.297 108.596V109.346H220.062V108.596H220.297ZM220.74 110.778V110.586L221.46 109.798C221.545 109.706 221.615 109.625 221.669 109.557C221.724 109.488 221.764 109.424 221.791 109.363C221.818 109.302 221.831 109.238 221.831 109.171C221.831 109.095 221.813 109.028 221.776 108.972C221.74 108.916 221.69 108.873 221.627 108.842C221.563 108.812 221.492 108.796 221.414 108.796C221.33 108.796 221.257 108.814 221.194 108.849C221.132 108.883 221.084 108.931 221.05 108.993C221.017 109.054 221 109.127 221 109.21H220.749C220.749 109.082 220.778 108.97 220.837 108.873C220.896 108.777 220.976 108.701 221.078 108.647C221.18 108.593 221.295 108.566 221.422 108.566C221.55 108.566 221.663 108.593 221.762 108.647C221.861 108.701 221.938 108.774 221.994 108.866C222.05 108.957 222.078 109.059 222.078 109.171C222.078 109.252 222.064 109.33 222.035 109.407C222.006 109.483 221.957 109.568 221.886 109.662C221.815 109.755 221.718 109.868 221.593 110.002L221.103 110.527V110.544H222.117V110.778H220.74ZM223.294 110.808C223.153 110.808 223.028 110.784 222.918 110.735C222.808 110.687 222.721 110.62 222.657 110.534C222.593 110.447 222.558 110.347 222.552 110.233H222.821C222.827 110.303 222.851 110.364 222.893 110.415C222.936 110.465 222.992 110.504 223.061 110.532C223.13 110.56 223.206 110.573 223.29 110.573C223.383 110.573 223.467 110.557 223.539 110.524C223.611 110.492 223.668 110.446 223.709 110.388C223.751 110.33 223.771 110.262 223.771 110.186C223.771 110.105 223.751 110.035 223.712 109.974C223.672 109.912 223.614 109.864 223.537 109.829C223.46 109.794 223.366 109.777 223.256 109.777H223.081V109.542H223.256C223.342 109.542 223.418 109.527 223.484 109.495C223.55 109.464 223.601 109.42 223.638 109.363C223.676 109.306 223.695 109.24 223.695 109.163C223.695 109.089 223.678 109.025 223.646 108.97C223.613 108.915 223.567 108.873 223.507 108.842C223.448 108.812 223.378 108.796 223.298 108.796C223.223 108.796 223.152 108.81 223.085 108.838C223.019 108.865 222.965 108.904 222.923 108.956C222.881 109.007 222.859 109.069 222.855 109.142H222.599C222.604 109.027 222.638 108.927 222.703 108.841C222.767 108.755 222.852 108.687 222.956 108.639C223.061 108.591 223.177 108.566 223.302 108.566C223.437 108.566 223.553 108.594 223.65 108.648C223.746 108.702 223.821 108.774 223.872 108.863C223.924 108.951 223.95 109.047 223.95 109.15C223.95 109.273 223.918 109.378 223.853 109.464C223.789 109.551 223.702 109.611 223.592 109.644V109.662C223.73 109.684 223.838 109.743 223.915 109.837C223.992 109.931 224.031 110.047 224.031 110.186C224.031 110.304 223.999 110.411 223.934 110.505C223.87 110.599 223.783 110.673 223.672 110.727C223.561 110.781 223.435 110.808 223.294 110.808Z" fill="#77838F"/>
<path d="M10.5725 105.925C10.412 105.925 10.2753 105.881 10.1623 105.794C10.0494 105.706 9.96313 105.578 9.90347 105.411C9.84381 105.244 9.81398 105.041 9.81398 104.804C9.81398 104.568 9.84381 104.367 9.90347 104.2C9.96384 104.032 10.0505 103.905 10.1634 103.817C10.277 103.728 10.4134 103.683 10.5725 103.683C10.7316 103.683 10.8676 103.728 10.9805 103.817C11.0942 103.905 11.1808 104.032 11.2405 104.2C11.3008 104.367 11.331 104.568 11.331 104.804C11.331 105.041 11.3012 105.244 11.2415 105.411C11.1819 105.578 11.0956 105.706 10.9827 105.794C10.8697 105.881 10.733 105.925 10.5725 105.925ZM10.5725 105.69C10.7316 105.69 10.8552 105.614 10.9432 105.46C11.0313 105.307 11.0753 105.088 11.0753 104.804C11.0753 104.615 11.0551 104.454 11.0146 104.321C10.9748 104.189 10.9173 104.087 10.842 104.018C10.7675 103.948 10.6776 103.913 10.5725 103.913C10.4148 103.913 10.2916 103.991 10.2028 104.147C10.1141 104.302 10.0697 104.521 10.0697 104.804C10.0697 104.993 10.0895 105.154 10.1293 105.286C10.1691 105.418 10.2263 105.518 10.3008 105.587C10.3761 105.656 10.4667 105.69 10.5725 105.69ZM12.8182 105.298L12.814 104.987H12.8651L13.581 104.259H13.8921L13.1293 105.03H13.108L12.8182 105.298ZM12.5839 105.895V103.713H12.8353V105.895H12.5839ZM13.6236 105.895L12.9844 105.085L13.1634 104.911L13.9432 105.895H13.6236Z" fill="#77838F"/>
<path d="M7.52685 91.092V90.9002L8.24703 90.1119C8.33154 90.0196 8.40114 89.9393 8.45583 89.8711C8.51052 89.8022 8.551 89.7376 8.57728 89.6772C8.60427 89.6162 8.61776 89.5522 8.61776 89.4855C8.61776 89.4088 8.5993 89.3424 8.56237 89.2862C8.52614 89.2301 8.47643 89.1868 8.41322 89.1563C8.35001 89.1257 8.27899 89.1105 8.20015 89.1105C8.11634 89.1105 8.04319 89.1279 7.98069 89.1627C7.9189 89.1968 7.87096 89.2447 7.83687 89.3065C7.80349 89.3683 7.7868 89.4407 7.7868 89.5238H7.53538C7.53538 89.396 7.56485 89.2838 7.6238 89.1872C7.68275 89.0906 7.76301 89.0153 7.86457 88.9613C7.96684 88.9073 8.08154 88.8804 8.20867 88.8804C8.33651 88.8804 8.4498 88.9073 8.54852 88.9613C8.64724 89.0153 8.72465 89.0881 8.78076 89.1797C8.83687 89.2713 8.86492 89.3733 8.86492 89.4855C8.86492 89.5657 8.85036 89.6442 8.82124 89.7209C8.79283 89.7969 8.74312 89.8818 8.6721 89.9755C8.60178 90.0686 8.50413 90.1822 8.37913 90.3164L7.88907 90.8406V90.8576H8.90328V91.092H7.52685ZM9.53076 91.109C9.4782 91.109 9.4331 91.0902 9.39546 91.0526C9.35782 91.0149 9.339 90.9698 9.339 90.9173C9.339 90.8647 9.35782 90.8196 9.39546 90.782C9.4331 90.7443 9.4782 90.7255 9.53076 90.7255C9.58332 90.7255 9.62842 90.7443 9.66606 90.782C9.7037 90.8196 9.72252 90.8647 9.72252 90.9173C9.72252 90.9521 9.71364 90.984 9.69589 91.0132C9.67884 91.0423 9.65576 91.0657 9.62664 91.0835C9.59823 91.1005 9.56627 91.109 9.53076 91.109ZM10.8073 91.1218C10.6823 91.1218 10.5697 91.097 10.4696 91.0473C10.3695 90.9975 10.2892 90.9294 10.2288 90.8427C10.1685 90.7561 10.1354 90.6573 10.1297 90.5465H10.3854C10.3954 90.6453 10.4401 90.7269 10.5197 90.7916C10.5999 90.8555 10.6958 90.8875 10.8073 90.8875C10.8968 90.8875 10.9763 90.8665 11.0459 90.8246C11.1163 90.7827 11.1713 90.7252 11.2111 90.652C11.2516 90.5782 11.2718 90.4947 11.2718 90.4017C11.2718 90.3065 11.2508 90.2216 11.2089 90.147C11.1677 90.0718 11.1109 90.0125 11.0385 89.9691C10.966 89.9258 10.8833 89.9038 10.7903 89.9031C10.7235 89.9024 10.655 89.9127 10.5846 89.934C10.5143 89.9546 10.4565 89.9812 10.411 90.0139L10.1638 89.984L10.2959 88.9102H11.4295V89.1446H10.5175L10.4408 89.788H10.4536C10.4984 89.7525 10.5545 89.723 10.6219 89.6996C10.6894 89.6762 10.7597 89.6644 10.8329 89.6644C10.9664 89.6644 11.0854 89.6964 11.1898 89.7603C11.2949 89.8235 11.3773 89.9102 11.4369 90.0203C11.4973 90.1304 11.5275 90.2561 11.5275 90.3974C11.5275 90.5366 11.4962 90.6609 11.4337 90.7703C11.3719 90.8789 11.2867 90.9649 11.178 91.0281C11.0694 91.0906 10.9458 91.1218 10.8073 91.1218ZM13.0331 90.4954L13.0288 90.1843H13.0799L13.7959 89.4556H14.1069L13.3441 90.2269H13.3228L13.0331 90.4954ZM12.7987 91.092V88.9102H13.0501V91.092H12.7987ZM13.8385 91.092L13.1993 90.2823L13.3782 90.1076L14.1581 91.092H13.8385Z" fill="#77838F"/>
<path d="M10.5427 76.3188C10.4177 76.3188 10.3051 76.294 10.205 76.2443C10.1048 76.1945 10.0246 76.1264 9.96419 76.0397C9.90382 75.9531 9.8708 75.8543 9.86512 75.7435H10.1208C10.1307 75.8423 10.1755 75.9239 10.255 75.9886C10.3353 76.0525 10.4312 76.0845 10.5427 76.0845C10.6322 76.0845 10.7117 76.0635 10.7813 76.0216C10.8516 75.9797 10.9067 75.9222 10.9464 75.849C10.9869 75.7752 11.0072 75.6917 11.0072 75.5987C11.0072 75.5035 10.9862 75.4186 10.9443 75.344C10.9031 75.2688 10.8463 75.2095 10.7739 75.1661C10.7014 75.1228 10.6187 75.1008 10.5256 75.1001C10.4589 75.0994 10.3903 75.1097 10.32 75.131C10.2497 75.1516 10.1918 75.1782 10.1464 75.2109L9.89921 75.181L10.0313 74.1072H11.1648V74.3416H10.2529L10.1762 74.985H10.189C10.2337 74.9495 10.2898 74.92 10.3573 74.8966C10.4248 74.8732 10.4951 74.8614 10.5682 74.8614C10.7018 74.8614 10.8207 74.8934 10.9251 74.9573C11.0302 75.0205 11.1126 75.1072 11.1723 75.2173C11.2327 75.3274 11.2628 75.4531 11.2628 75.5944C11.2628 75.7336 11.2316 75.8579 11.1691 75.9673C11.1073 76.0759 11.0221 76.1619 10.9134 76.2251C10.8047 76.2876 10.6812 76.3188 10.5427 76.3188ZM12.7684 75.6924L12.7642 75.3813H12.8153L13.5312 74.6526H13.8423L13.0795 75.4239H13.0582L12.7684 75.6924ZM12.5341 76.289V74.1072H12.7855V76.289H12.5341ZM13.5738 76.289L12.9346 75.4793L13.1136 75.3046L13.8934 76.289H13.5738Z" fill="#77838F"/>
<path d="M7.59504 61.728L8.57089 59.7976V59.7806H7.44589V59.5462H8.84362V59.7933L7.87203 61.728H7.59504ZM9.05322 61.745C9.00067 61.745 8.95557 61.7262 8.91792 61.6886C8.88028 61.6509 8.86146 61.6058 8.86146 61.5533C8.86146 61.5007 8.88028 61.4556 8.91792 61.418C8.95557 61.3803 9.00067 61.3615 9.05322 61.3615C9.10578 61.3615 9.15088 61.3803 9.18852 61.418C9.22616 61.4556 9.24498 61.5007 9.24498 61.5533C9.24498 61.5881 9.23611 61.62 9.21835 61.6492C9.2013 61.6783 9.17822 61.7017 9.1491 61.7195C9.12069 61.7365 9.08873 61.745 9.05322 61.745ZM10.3298 61.7578C10.2048 61.7578 10.0922 61.733 9.99205 61.6833C9.89191 61.6335 9.81166 61.5654 9.75129 61.4787C9.69092 61.3921 9.65789 61.2933 9.65221 61.1825H9.90789C9.91783 61.2813 9.96258 61.3629 10.0421 61.4276C10.1224 61.4915 10.2183 61.5235 10.3298 61.5235C10.4193 61.5235 10.4988 61.5025 10.5684 61.4606C10.6387 61.4187 10.6938 61.3612 10.7335 61.288C10.774 61.2142 10.7943 61.1307 10.7943 61.0377C10.7943 60.9425 10.7733 60.8576 10.7314 60.783C10.6902 60.7078 10.6334 60.6485 10.5609 60.6051C10.4885 60.5618 10.4058 60.5398 10.3127 60.5391C10.246 60.5384 10.1774 60.5487 10.1071 60.57C10.0368 60.5906 9.97891 60.6172 9.93346 60.6499L9.6863 60.62L9.8184 59.5462H10.9519V59.7806H10.04L9.96329 60.424H9.97607C10.0208 60.3885 10.0769 60.359 10.1444 60.3356C10.2119 60.3122 10.2822 60.3004 10.3553 60.3004C10.4889 60.3004 10.6078 60.3324 10.7122 60.3963C10.8173 60.4595 10.8997 60.5462 10.9594 60.6563C11.0198 60.7664 11.0499 60.8921 11.0499 61.0334C11.0499 61.1726 11.0187 61.2969 10.9562 61.4063C10.8944 61.5149 10.8092 61.6009 10.7005 61.6641C10.5918 61.7266 10.4683 61.7578 10.3298 61.7578ZM12.5555 61.1314L12.5513 60.8203H12.6024L13.3183 60.0916H13.6294L12.8666 60.8629H12.8453L12.5555 61.1314ZM12.3212 61.728V59.5462H12.5726V61.728H12.3212ZM13.3609 61.728L12.7217 60.9183L12.9007 60.7436L13.6805 61.728H13.3609Z" fill="#77838F"/>
<path d="M9.4049 44.7432V46.925H9.1407V45.0202H9.12791L8.59524 45.3739V45.1054L9.1407 44.7432H9.4049ZM10.744 46.9548C10.5835 46.9548 10.4468 46.9111 10.3339 46.8238C10.221 46.7357 10.1347 46.6082 10.075 46.4413C10.0153 46.2737 9.98551 46.0713 9.98551 45.8341C9.98551 45.5983 10.0153 45.3969 10.075 45.23C10.1354 45.0624 10.222 44.9346 10.3349 44.8465C10.4486 44.7577 10.5849 44.7134 10.744 44.7134C10.9031 44.7134 11.0391 44.7577 11.1521 44.8465C11.2657 44.9346 11.3523 45.0624 11.412 45.23C11.4724 45.3969 11.5026 45.5983 11.5026 45.8341C11.5026 46.0713 11.4727 46.2737 11.4131 46.4413C11.3534 46.6082 11.2671 46.7357 11.1542 46.8238C11.0413 46.9111 10.9045 46.9548 10.744 46.9548ZM10.744 46.7205C10.9031 46.7205 11.0267 46.6437 11.1148 46.4903C11.2028 46.3369 11.2469 46.1182 11.2469 45.8341C11.2469 45.6452 11.2266 45.4843 11.1862 45.3515C11.1464 45.2187 11.0888 45.1175 11.0136 45.0479C10.939 44.9783 10.8491 44.9435 10.744 44.9435C10.5864 44.9435 10.4631 45.0212 10.3744 45.1768C10.2856 45.3316 10.2412 45.5507 10.2412 45.8341C10.2412 46.023 10.2611 46.1835 10.3009 46.3156C10.3406 46.4477 10.3978 46.5482 10.4724 46.6171C10.5477 46.686 10.6382 46.7205 10.744 46.7205ZM12.9898 46.3284L12.9855 46.0173H13.0366L13.7526 45.2886H14.0636L13.3009 46.0599H13.2795L12.9898 46.3284ZM12.7554 46.925V44.7432H13.0068V46.925H12.7554ZM13.7952 46.925L13.156 46.1153L13.3349 45.9406L14.1148 46.925H13.7952Z" fill="#77838F"/>
<path d="M7.0709 30.1822V32.364H6.8067V30.4592H6.79391L6.26124 30.8129V30.5444L6.8067 30.1822H7.0709ZM7.69839 32.364V32.1722L8.41856 31.3839C8.50307 31.2916 8.57268 31.2113 8.62736 31.1431C8.68205 31.0742 8.72253 31.0096 8.74881 30.9492C8.7758 30.8881 8.7893 30.8242 8.7893 30.7575C8.7893 30.6808 8.77083 30.6144 8.7339 30.5582C8.69768 30.5021 8.64796 30.4588 8.58475 30.4283C8.52154 30.3977 8.45052 30.3825 8.37168 30.3825C8.28788 30.3825 8.21472 30.3999 8.15222 30.4347C8.09043 30.4688 8.04249 30.5167 8.0084 30.5785C7.97502 30.6403 7.95833 30.7127 7.95833 30.7958H7.70691C7.70691 30.668 7.73638 30.5558 7.79533 30.4592C7.85428 30.3626 7.93454 30.2873 8.0361 30.2333C8.13837 30.1793 8.25307 30.1524 8.3802 30.1524C8.50805 30.1524 8.62133 30.1793 8.72005 30.2333C8.81877 30.2873 8.89618 30.3601 8.95229 30.4517C9.0084 30.5433 9.03645 30.6452 9.03645 30.7575C9.03645 30.8377 9.02189 30.9162 8.99278 30.9929C8.96437 31.0689 8.91465 31.1538 8.84363 31.2475C8.77332 31.3406 8.67566 31.4542 8.55066 31.5884L8.0606 32.1126V32.1296H9.07481V32.364H7.69839ZM9.70229 32.381C9.64974 32.381 9.60464 32.3622 9.56699 32.3246C9.52935 32.2869 9.51053 32.2418 9.51053 32.1893C9.51053 32.1367 9.52935 32.0916 9.56699 32.054C9.60464 32.0163 9.64974 31.9975 9.70229 31.9975C9.75485 31.9975 9.79995 32.0163 9.83759 32.054C9.87523 32.0916 9.89405 32.1367 9.89405 32.1893C9.89405 32.2241 9.88518 32.256 9.86742 32.2852C9.85038 32.3143 9.82729 32.3377 9.79817 32.3555C9.76976 32.3725 9.7378 32.381 9.70229 32.381ZM10.9788 32.3938C10.8538 32.3938 10.7413 32.369 10.6411 32.3193C10.541 32.2695 10.4607 32.2014 10.4004 32.1147C10.34 32.0281 10.307 31.9293 10.3013 31.8185H10.557C10.5669 31.9173 10.6116 31.9989 10.6912 32.0636C10.7715 32.1275 10.8673 32.1595 10.9788 32.1595C11.0683 32.1595 11.1479 32.1385 11.2175 32.0966C11.2878 32.0547 11.3428 31.9972 11.3826 31.924C11.4231 31.8501 11.4433 31.7667 11.4433 31.6737C11.4433 31.5785 11.4224 31.4936 11.3805 31.419C11.3393 31.3438 11.2825 31.2845 11.21 31.2411C11.1376 31.1978 11.0548 31.1758 10.9618 31.1751C10.895 31.1744 10.8265 31.1847 10.7562 31.206C10.6859 31.2266 10.628 31.2532 10.5825 31.2859L10.3354 31.256L10.4675 30.1822H11.601V30.4166H10.6891L10.6124 31.06H10.6251C10.6699 31.0245 10.726 30.995 10.7935 30.9716C10.8609 30.9482 10.9313 30.9364 11.0044 30.9364C11.1379 30.9364 11.2569 30.9684 11.3613 31.0323C11.4664 31.0955 11.5488 31.1822 11.6085 31.2923C11.6688 31.4024 11.699 31.5281 11.699 31.6694C11.699 31.8086 11.6678 31.9329 11.6053 32.0423C11.5435 32.1509 11.4582 32.2369 11.3496 32.3001C11.2409 32.3626 11.1173 32.3938 10.9788 32.3938ZM13.2046 31.7674L13.2003 31.4563H13.2515L13.9674 30.7276H14.2785L13.5157 31.4989H13.4944L13.2046 31.7674ZM12.9702 32.364V30.1822H13.2216V32.364H12.9702ZM14.01 32.364L13.3708 31.5543L13.5498 31.3796L14.3296 32.364H14.01Z" fill="#77838F"/>
<path d="M9.4049 15.3792V17.561H9.1407V15.6562H9.12791L8.59524 16.0099V15.7414L9.1407 15.3792H9.4049ZM10.7142 17.5908C10.5892 17.5908 10.4766 17.566 10.3765 17.5163C10.2763 17.4665 10.1961 17.3984 10.1357 17.3117C10.0754 17.2251 10.0423 17.1263 10.0366 17.0155H10.2923C10.3023 17.1143 10.347 17.1959 10.4266 17.2606C10.5068 17.3245 10.6027 17.3565 10.7142 17.3565C10.8037 17.3565 10.8832 17.3355 10.9528 17.2936C11.0232 17.2517 11.0782 17.1942 11.118 17.121C11.1585 17.0472 11.1787 16.9637 11.1787 16.8707C11.1787 16.7755 11.1577 16.6906 11.1158 16.616C11.0746 16.5408 11.0178 16.4815 10.9454 16.4381C10.8729 16.3948 10.7902 16.3728 10.6972 16.3721C10.6304 16.3714 10.5619 16.3817 10.4915 16.403C10.4212 16.4236 10.3634 16.4502 10.3179 16.4829L10.0707 16.453L10.2028 15.3792H11.3364V15.6136H10.4244L10.3477 16.257H10.3605C10.4053 16.2215 10.4614 16.192 10.5288 16.1686C10.5963 16.1452 10.6666 16.1334 10.7398 16.1334C10.8733 16.1334 10.9923 16.1654 11.0967 16.2293C11.2018 16.2925 11.2842 16.3792 11.3438 16.4893C11.4042 16.5994 11.4344 16.7251 11.4344 16.8664C11.4344 17.0056 11.4031 17.1299 11.3406 17.2393C11.2788 17.3479 11.1936 17.4339 11.0849 17.4971C10.9763 17.5596 10.8527 17.5908 10.7142 17.5908ZM12.94 16.9644L12.9357 16.6533H12.9868L13.7028 15.9246H14.0138L13.251 16.6959H13.2297L12.94 16.9644ZM12.7056 17.561V15.3792H12.957V17.561H12.7056ZM13.7454 17.561L13.1062 16.7513L13.2851 16.5766L14.065 17.561H13.7454Z" fill="#77838F"/>
<path d="M7.0709 0.818182V3H6.8067V1.09517H6.79391L6.26124 1.44886V1.1804L6.8067 0.818182H7.0709ZM7.76657 3L8.74242 1.0696V1.05256H7.61742V0.818182H9.01515V1.06534L8.04356 3H7.76657ZM9.22475 3.01705C9.1722 3.01705 9.1271 2.99822 9.08946 2.96058C9.05181 2.92294 9.03299 2.87784 9.03299 2.82528C9.03299 2.77273 9.05181 2.72763 9.08946 2.68999C9.1271 2.65234 9.1722 2.63352 9.22475 2.63352C9.27731 2.63352 9.32241 2.65234 9.36005 2.68999C9.39769 2.72763 9.41652 2.77273 9.41652 2.82528C9.41652 2.86009 9.40764 2.89205 9.38988 2.92116C9.37284 2.95028 9.34975 2.97372 9.32063 2.99148C9.29223 3.00852 9.26027 3.01705 9.22475 3.01705ZM10.5013 3.02983C10.3763 3.02983 10.2637 3.00497 10.1636 2.95526C10.0634 2.90554 9.98319 2.83736 9.92282 2.75071C9.86245 2.66406 9.82942 2.56534 9.82374 2.45455H10.0794C10.0894 2.55327 10.1341 2.63494 10.2137 2.69957C10.2939 2.76349 10.3898 2.79545 10.5013 2.79545C10.5908 2.79545 10.6703 2.7745 10.7399 2.7326C10.8102 2.6907 10.8653 2.63317 10.9051 2.56001C10.9455 2.48615 10.9658 2.4027 10.9658 2.30966C10.9658 2.21449 10.9448 2.12962 10.9029 2.05504C10.8617 1.97976 10.8049 1.92045 10.7325 1.87713C10.66 1.83381 10.5773 1.81179 10.4843 1.81108C10.4175 1.81037 10.349 1.82067 10.2786 1.84197C10.2083 1.86257 10.1504 1.8892 10.105 1.92188L9.85783 1.89205L9.98993 0.818182H11.1235V1.05256H10.2115L10.1348 1.69602H10.1476C10.1923 1.66051 10.2485 1.63104 10.3159 1.6076C10.3834 1.58416 10.4537 1.57244 10.5269 1.57244C10.6604 1.57244 10.7794 1.6044 10.8838 1.66832C10.9889 1.73153 11.0713 1.81818 11.1309 1.92827C11.1913 2.03835 11.2215 2.16406 11.2215 2.3054C11.2215 2.4446 11.1902 2.56889 11.1277 2.67827C11.0659 2.78693 10.9807 2.87287 10.872 2.93608C10.7634 2.99858 10.6398 3.02983 10.5013 3.02983ZM12.7271 2.40341L12.7228 2.09233H12.7739L13.4898 1.36364H13.8009L13.0381 2.13494H13.0168L12.7271 2.40341ZM12.4927 3V0.818182H12.7441V3H12.4927ZM13.5325 3L12.8933 2.19034L13.0722 2.01562L13.8521 3H13.5325Z" fill="#77838F"/>
</g>
<defs>
<clipPath id="clip0_2_2">
<rect width="230.201" height="111.778" fill="white"/>
</clipPath>
</defs>
</svg>
